<svg width="132" height="194" viewBox="0 0 132 194" fill="none" xmlns="http://www.w3.org/2000/svg">
<g clip-path="url(#clip0_8462_308818)">
<g filter="url(#filter0_i_8462_308818)">
<rect width="132" height="194" rx="8" fill="url(#paint0_linear_8462_308818)"/>
<rect width="132" height="194" rx="8" fill="white" fill-opacity="0.5"/>
</g>
<path d="M29.9137 76.2009C29.9302 76.2877 30.0358 76.2877 30.0523 76.2009C30.8213 72.0534 33.5143 68.9265 37.3129 68.7672C37.412 68.7636 37.511 68.76 37.61 68.76C41.831 68.76 44.5934 72.513 44.5934 77.1418C44.5934 77.4024 44.5802 77.663 44.5571 77.9199L44.5604 77.9163C44.5604 77.9163 44.5472 78.1262 44.4944 78.4845C44.4878 78.5207 44.4845 78.5569 44.4779 78.5931C44.326 79.5558 43.9003 81.4449 42.7452 83.5983C42.6957 83.6888 42.6495 83.772 42.6 83.848C39.8805 88.7902 34.0509 93.044 30.3167 100.11C30.1764 100.375 29.7897 100.375 29.6493 100.11C25.9152 93.044 20.0856 88.7902 17.3693 83.848C17.3198 83.7684 17.2736 83.6888 17.2241 83.5983C16.069 81.4449 15.6433 79.5558 15.4915 78.5931C15.4849 78.5569 15.4816 78.5207 15.475 78.4845C15.4222 78.1226 15.409 77.9163 15.409 77.9163L15.4123 77.9199C15.3892 77.6594 15.376 77.4024 15.376 77.1418C15.376 72.513 18.1383 68.76 22.3594 68.76C22.4584 68.76 22.5574 68.7636 22.6531 68.7672C26.4517 68.9265 29.1448 72.0534 29.9137 76.2009Z" fill="#CD1F3C"/>
<path d="M78.796 122.462C78.8434 122.701 79.1471 122.701 79.1945 122.462C81.4053 111.057 89.1477 102.458 100.069 102.02C100.353 102.01 100.638 102 100.923 102C113.058 102 121 112.321 121 125.05C121 125.767 120.962 126.483 120.896 127.19L120.905 127.18C120.905 127.18 120.867 127.757 120.715 128.742C120.696 128.842 120.687 128.941 120.668 129.041C120.231 131.688 119.007 136.884 115.687 142.805C115.544 143.054 115.411 143.283 115.269 143.492C107.438 157.105 90.6368 168.818 79.9033 188.304C79.5128 189.013 78.4777 189.013 78.0873 188.304C67.3537 168.818 50.5527 157.105 42.7309 143.492C42.5886 143.273 42.4558 143.054 42.3135 142.805C38.9925 136.884 37.7686 131.688 37.3321 129.041C37.3131 128.941 37.3036 128.842 37.2846 128.742C37.1328 127.747 37.0949 127.18 37.0949 127.18L37.1044 127.19C37.038 126.473 37 125.767 37 125.05C37 112.321 44.9417 102 57.0773 102C57.3619 102 57.6466 102.01 57.9217 102.02C68.8428 102.458 76.5852 111.057 78.796 122.462Z" fill="#CD1F3C"/>
<path fill-rule="evenodd" clip-rule="evenodd" d="M43.2616 62.0318V54.405H25.2373C25.2373 51.9192 26.9155 48.9476 30.272 45.4901L37.6227 37.7616C41.8742 33.4002 44 28.6433 44 23.491C44 19.6719 42.8029 16.4743 40.4086 13.8982C38.0366 11.2994 34.434 10 29.6007 10C20.1578 10 15.4363 15.0845 15.4363 25.2536V27.3552H24.4653C24.4653 23.6492 24.7785 21.1069 25.4051 19.7284C26.054 18.3274 27.4861 17.6268 29.7014 17.6268C32.8117 17.6268 34.3669 19.6493 34.3669 23.6944C34.3669 25.909 34.0312 27.6377 33.36 28.8806C32.711 30.1235 31.4244 31.7393 29.5 33.7279L24.9688 38.5412C20.3816 43.4224 17.6069 47.3432 16.6447 50.3035C15.6825 53.2412 15.1343 57.1507 15 62.0318H43.2616Z" fill="#CD1F3C"/>
</g>
<defs>
<filter id="filter0_i_8462_308818" x="0" y="0" width="132" height="194" filterUnits="userSpaceOnUse" color-interpolation-filters="sRGB">
<feFlood flood-opacity="0" result="BackgroundImageFix"/>
<feBlend mode="normal" in="SourceGraphic" in2="BackgroundImageFix" result="shape"/>
<feColorMatrix in="SourceAlpha" type="matrix" values="0 0 0 0 0 0 0 0 0 0 0 0 0 0 0 0 0 0 127 0" result="hardAlpha"/>
<feMorphology radius="2" operator="erode" in="SourceAlpha" result="effect1_innerShadow_8462_308818"/>
<feOffset/>
<feGaussianBlur stdDeviation="0.5"/>
<feComposite in2="hardAlpha" operator="arithmetic" k2="-1" k3="1"/>
<feColorMatrix type="matrix" values="0 0 0 0 1 0 0 0 0 1 0 0 0 0 1 0 0 0 1 0"/>
<feBlend mode="normal" in2="shape" result="effect1_innerShadow_8462_308818"/>
</filter>
<linearGradient id="paint0_linear_8462_308818" x1="8.98423" y1="101.043" x2="8.98423" y2="268.635" gradientUnits="userSpaceOnUse">
<stop stop-color="#F6F6F6"/>
<stop offset="1" stop-color="#ABABAB"/>
</linearGradient>
<clipPath id="clip0_8462_308818">
<rect width="132" height="194" rx="8" fill="white"/>
</clipPath>
</defs>
</svg>
