<svg width="132" height="194" viewBox="0 0 132 194" fill="none" xmlns="http://www.w3.org/2000/svg">
<g clip-path="url(#clip0_8462_309754)">
<g filter="url(#filter0_i_8462_309754)">
<rect width="132" height="194" rx="8" fill="url(#paint0_linear_8462_309754)"/>
<rect width="132" height="194" rx="8" fill="white" fill-opacity="0.5"/>
</g>
<path d="M44.1466 139.682C43.4915 140.437 43.4914 141.563 44.1463 142.318C61.8543 162.72 76.6607 181.743 81.4056 187.915C82.2137 188.966 83.7864 188.966 84.5945 187.915C89.3407 181.742 104.153 162.713 121.854 142.318C122.509 141.563 122.509 140.437 121.854 139.682C104.153 119.287 89.3414 100.259 84.5949 94.0856C83.7866 93.0343 82.2136 93.0346 81.4056 94.0859C76.6608 100.26 61.8545 119.288 44.1466 139.682Z" fill="#CD1F3C"/>
<path d="M48.9681 85.9611C43.3148 80.251 38.3752 73.7562 33.5219 66.6289L33.502 66.6042C28.6407 73.748 23.6852 80.2592 18.0159 85.9816L18 86.0021L18.004 86.0062C23.6812 91.7328 28.6407 98.248 33.502 105.396L33.514 105.384C38.3712 98.248 43.3188 91.7451 48.9801 86.0268L49 86.0021L48.9681 85.9611Z" fill="#CD1F3C"/>
<path fill-rule="evenodd" clip-rule="evenodd" d="M25 59.9905V10.228H19.2556C18.2123 15.0263 12.7994 18.6955 7 18.6955V25.3391H16.8048V59.9905H25Z" fill="#CD1F3C"/>
<path fill-rule="evenodd" clip-rule="evenodd" d="M43.1095 61C51.7032 61 56 56.1801 56 46.5402V24.3295C56 14.7765 51.7032 10 43.1095 10C34.3698 10 30 14.6571 30 23.9713V46.4425C30 56.1475 34.3698 61 43.1095 61ZM42.7471 53.6724C39.5824 53.6724 38 51.3493 38 46.7031V24.2969C38 19.6507 39.6602 17.3276 42.9805 17.3276C46.3268 17.3276 48 19.6507 48 24.2969V46.5728C48 51.3059 46.249 53.6724 42.7471 53.6724Z" fill="#CD1F3C"/>
</g>
<defs>
<filter id="filter0_i_8462_309754" x="0" y="0" width="132" height="194" filterUnits="userSpaceOnUse" color-interpolation-filters="sRGB">
<feFlood flood-opacity="0" result="BackgroundImageFix"/>
<feBlend mode="normal" in="SourceGraphic" in2="BackgroundImageFix" result="shape"/>
<feColorMatrix in="SourceAlpha" type="matrix" values="0 0 0 0 0 0 0 0 0 0 0 0 0 0 0 0 0 0 127 0" result="hardAlpha"/>
<feMorphology radius="2" operator="erode" in="SourceAlpha" result="effect1_innerShadow_8462_309754"/>
<feOffset/>
<feGaussianBlur stdDeviation="0.5"/>
<feComposite in2="hardAlpha" operator="arithmetic" k2="-1" k3="1"/>
<feColorMatrix type="matrix" values="0 0 0 0 1 0 0 0 0 1 0 0 0 0 1 0 0 0 1 0"/>
<feBlend mode="normal" in2="shape" result="effect1_innerShadow_8462_309754"/>
</filter>
<linearGradient id="paint0_linear_8462_309754" x1="8.98423" y1="101.043" x2="8.98423" y2="268.635" gradientUnits="userSpaceOnUse">
<stop stop-color="#F6F6F6"/>
<stop offset="1" stop-color="#ABABAB"/>
</linearGradient>
<clipPath id="clip0_8462_309754">
<rect width="132" height="194" rx="8" fill="white"/>
</clipPath>
</defs>
</svg>
