<svg width="132" height="194" viewBox="0 0 132 194" fill="none" xmlns="http://www.w3.org/2000/svg">
<g clip-path="url(#clip0_8462_309178)">
<g filter="url(#filter0_i_8462_309178)">
<rect width="132" height="194" rx="8" fill="url(#paint0_linear_8462_309178)"/>
<rect width="132" height="194" rx="8" fill="white" fill-opacity="0.5"/>
</g>
<path fill-rule="evenodd" clip-rule="evenodd" d="M83.0527 132H90.0527V151H83.0527V176.133C84.0713 179.002 86.3255 183.432 91.028 186.132C91.6736 186.494 92.0527 187.187 92.0527 187.911C92.0527 189.066 91.0997 190 89.9212 190H83.0527H79.0527H77.0527H73.0527H66.1842C65.0058 190 64.0527 189.066 64.0527 187.911C64.0527 187.187 64.4319 186.494 65.0775 186.132C69.7799 183.432 72.0342 179.002 73.0527 176.133V151H66.0527V132H73.0527H83.0527Z" fill="#212121"/>
<path fill-rule="evenodd" clip-rule="evenodd" d="M100.053 118.5C100.053 130.374 90.203 140 78.0527 140C65.9025 140 56.0527 130.374 56.0527 118.5C56.0527 106.626 65.9025 97 78.0527 97C90.203 97 100.053 106.626 100.053 118.5ZM54.2826 175C65.4553 175 74.5125 165.822 74.5125 154.5C74.5125 143.178 65.4553 134 54.2826 134C43.11 134 34.0527 143.178 34.0527 154.5C34.0527 165.822 43.11 175 54.2826 175ZM101.823 175C112.995 175 122.053 165.822 122.053 154.5C122.053 143.178 112.995 134 101.823 134C90.6502 134 81.593 143.178 81.593 154.5C81.593 165.822 90.6502 175 101.823 175Z" fill="#212121"/>
<path fill-rule="evenodd" clip-rule="evenodd" d="M31.8479 81.4043H34.4349V88.4788H31.8479V97.8366C32.2243 98.9052 33.0574 100.554 34.7953 101.56C35.0339 101.695 35.174 101.953 35.174 102.222C35.174 102.652 34.8218 103 34.3863 103H30.3696V103H29.6305V103H25.6139C25.1784 103 24.8262 102.652 24.8262 102.222C24.8262 101.953 24.9663 101.695 25.2049 101.56C26.9427 100.554 27.7758 98.9052 28.1523 97.8367V88.4788H25.5653V81.4043H28.1523H31.8479Z" fill="#212121"/>
<path fill-rule="evenodd" clip-rule="evenodd" d="M38.0371 76.5638C38.0371 80.8822 34.4388 84.3829 30.0001 84.3829C25.5614 84.3829 21.9631 80.8822 21.9631 76.5638C21.9631 72.2454 25.5614 68.7446 30.0001 68.7446C34.4388 68.7446 38.0371 72.2454 38.0371 76.5638ZM21.2155 97.4148C25.3445 97.4148 28.6918 93.9974 28.6918 89.7819C28.6918 85.5663 25.3445 82.1489 21.2155 82.1489C17.0865 82.1489 13.7393 85.5663 13.7393 89.7819C13.7393 93.9974 17.0865 97.4148 21.2155 97.4148ZM38.7847 97.4148C42.9138 97.4148 46.261 93.9974 46.261 89.7819C46.261 85.5663 42.9138 82.1489 38.7847 82.1489C34.6557 82.1489 31.3085 85.5663 31.3085 89.7819C31.3085 93.9974 34.6557 97.4148 38.7847 97.4148Z" fill="#212121"/>
<path d="M27 92H33V101H27V92Z" fill="#212121"/>
<path fill-rule="evenodd" clip-rule="evenodd" d="M29.1246 61C38.2615 61 42.83 55.9195 42.83 45.7586C42.83 41.1341 42.1635 38.0294 40.8306 36.4444C39.5192 34.8595 37.724 33.7631 35.4452 33.1552C37.6595 32.3301 39.2719 31.1903 40.2824 29.7356C41.2928 28.281 41.798 25.8602 41.798 22.4732C41.798 14.1577 37.5413 10 29.0279 10C24.9216 10 21.7291 11.0747 19.4502 13.2241C17.1714 15.3736 16.0319 18.1201 16.0319 21.4636C16.0319 24.8072 16.5157 27.3365 17.4831 29.0517C18.472 30.7452 19.9662 32.0479 21.9656 32.9598C19.6007 33.9802 17.8486 35.4023 16.7091 37.2261C15.5697 39.0498 15 41.97 15 45.9866C15 51.2407 16.1287 55.0619 18.386 57.4502C20.6434 59.8167 24.2229 61 29.1246 61ZM28.9636 29.8985C26.0183 29.8985 24.5457 27.7708 24.5457 23.5154C24.5457 19.3902 26.0398 17.3276 29.0281 17.3276C31.866 17.3276 33.2849 19.2057 33.2849 22.9617C33.2849 27.5863 31.8445 29.8985 28.9636 29.8985ZM29.0276 53.6723C25.8458 53.6723 24.2549 51.6098 24.2549 47.4846V43.6417C24.2549 38.9086 25.8458 36.5421 29.0276 36.5421C32.0589 36.5421 33.5746 38.6915 33.5746 42.9904V46.8333C33.5746 51.3927 32.0589 53.6723 29.0276 53.6723Z" fill="#212121"/>
</g>
<defs>
<filter id="filter0_i_8462_309178" x="0" y="0" width="132" height="194" filterUnits="userSpaceOnUse" color-interpolation-filters="sRGB">
<feFlood flood-opacity="0" result="BackgroundImageFix"/>
<feBlend mode="normal" in="SourceGraphic" in2="BackgroundImageFix" result="shape"/>
<feColorMatrix in="SourceAlpha" type="matrix" values="0 0 0 0 0 0 0 0 0 0 0 0 0 0 0 0 0 0 127 0" result="hardAlpha"/>
<feMorphology radius="2" operator="erode" in="SourceAlpha" result="effect1_innerShadow_8462_309178"/>
<feOffset/>
<feGaussianBlur stdDeviation="0.5"/>
<feComposite in2="hardAlpha" operator="arithmetic" k2="-1" k3="1"/>
<feColorMatrix type="matrix" values="0 0 0 0 1 0 0 0 0 1 0 0 0 0 1 0 0 0 1 0"/>
<feBlend mode="normal" in2="shape" result="effect1_innerShadow_8462_309178"/>
</filter>
<linearGradient id="paint0_linear_8462_309178" x1="8.98423" y1="101.043" x2="8.98423" y2="268.635" gradientUnits="userSpaceOnUse">
<stop stop-color="#F6F6F6"/>
<stop offset="1" stop-color="#ABABAB"/>
</linearGradient>
<clipPath id="clip0_8462_309178">
<rect width="132" height="194" rx="8" fill="white"/>
</clipPath>
</defs>
</svg>
