<svg width="132" height="194" viewBox="0 0 132 194" fill="none" xmlns="http://www.w3.org/2000/svg">
<g clip-path="url(#clip0_8462_308824)">
<g filter="url(#filter0_i_8462_308824)">
<rect width="132" height="194" rx="8" fill="url(#paint0_linear_8462_308824)"/>
<rect width="132" height="194" rx="8" fill="white" fill-opacity="0.5"/>
</g>
<path d="M29.9137 76.2009C29.9302 76.2877 30.0358 76.2877 30.0523 76.2009C30.8213 72.0534 33.5143 68.9265 37.3129 68.7672C37.412 68.7636 37.511 68.76 37.61 68.76C41.831 68.76 44.5934 72.513 44.5934 77.1418C44.5934 77.4024 44.5802 77.663 44.5571 77.9199L44.5604 77.9163C44.5604 77.9163 44.5472 78.1262 44.4944 78.4845C44.4878 78.5207 44.4845 78.5569 44.4779 78.5931C44.326 79.5558 43.9003 81.4449 42.7452 83.5983C42.6957 83.6888 42.6495 83.772 42.6 83.848C39.8805 88.7902 34.0509 93.044 30.3167 100.11C30.1764 100.375 29.7897 100.375 29.6493 100.11C25.9152 93.044 20.0856 88.7902 17.3693 83.848C17.3198 83.7684 17.2736 83.6888 17.2241 83.5983C16.069 81.4449 15.6433 79.5558 15.4915 78.5931C15.4849 78.5569 15.4816 78.5207 15.475 78.4845C15.4222 78.1226 15.409 77.9163 15.409 77.9163L15.4123 77.9199C15.3892 77.6594 15.376 77.4024 15.376 77.1418C15.376 72.513 18.1383 68.76 22.3594 68.76C22.4584 68.76 22.5574 68.7636 22.6531 68.7672C26.4517 68.9265 29.1448 72.0534 29.9137 76.2009Z" fill="#CD1F3C"/>
<path d="M78.796 122.462C78.8434 122.701 79.1471 122.701 79.1945 122.462C81.4053 111.057 89.1477 102.458 100.069 102.02C100.353 102.01 100.638 102 100.923 102C113.058 102 121 112.321 121 125.05C121 125.767 120.962 126.483 120.896 127.19L120.905 127.18C120.905 127.18 120.867 127.757 120.715 128.742C120.696 128.842 120.687 128.941 120.668 129.041C120.231 131.688 119.007 136.884 115.687 142.805C115.544 143.054 115.411 143.283 115.269 143.492C107.438 157.105 90.6368 168.818 79.9033 188.304C79.5128 189.013 78.4777 189.013 78.0873 188.304C67.3537 168.818 50.5527 157.105 42.7309 143.492C42.5886 143.273 42.4558 143.054 42.3135 142.805C38.9925 136.884 37.7686 131.688 37.3321 129.041C37.3131 128.941 37.3036 128.842 37.2846 128.742C37.1328 127.747 37.0949 127.18 37.0949 127.18L37.1044 127.19C37.038 126.473 37 125.767 37 125.05C37 112.321 44.9417 102 57.0773 102C57.3619 102 57.6466 102.01 57.9217 102.02C68.8428 102.458 76.5852 111.057 78.796 122.462Z" fill="#CD1F3C"/>
<path fill-rule="evenodd" clip-rule="evenodd" d="M29.1246 61C38.2615 61 42.83 55.9195 42.83 45.7586C42.83 41.1341 42.1635 38.0294 40.8306 36.4444C39.5192 34.8595 37.724 33.7631 35.4452 33.1552C37.6595 32.3301 39.2719 31.1903 40.2824 29.7356C41.2928 28.281 41.798 25.8602 41.798 22.4732C41.798 14.1577 37.5413 10 29.0279 10C24.9216 10 21.7291 11.0747 19.4502 13.2241C17.1714 15.3736 16.0319 18.1201 16.0319 21.4636C16.0319 24.8072 16.5157 27.3365 17.4831 29.0517C18.472 30.7452 19.9662 32.0479 21.9656 32.9598C19.6007 33.9802 17.8486 35.4023 16.7091 37.2261C15.5697 39.0498 15 41.97 15 45.9866C15 51.2407 16.1287 55.0619 18.386 57.4502C20.6434 59.8167 24.2229 61 29.1246 61ZM28.9636 29.8985C26.0183 29.8985 24.5457 27.7708 24.5457 23.5154C24.5457 19.3902 26.0398 17.3276 29.0281 17.3276C31.866 17.3276 33.2849 19.2057 33.2849 22.9617C33.2849 27.5863 31.8445 29.8985 28.9636 29.8985ZM29.0276 53.6723C25.8458 53.6723 24.2549 51.6098 24.2549 47.4846V43.6417C24.2549 38.9086 25.8458 36.5421 29.0276 36.5421C32.0589 36.5421 33.5746 38.6915 33.5746 42.9904V46.8333C33.5746 51.3927 32.0589 53.6723 29.0276 53.6723Z" fill="#CD1F3C"/>
</g>
<defs>
<filter id="filter0_i_8462_308824" x="0" y="0" width="132" height="194" filterUnits="userSpaceOnUse" color-interpolation-filters="sRGB">
<feFlood flood-opacity="0" result="BackgroundImageFix"/>
<feBlend mode="normal" in="SourceGraphic" in2="BackgroundImageFix" result="shape"/>
<feColorMatrix in="SourceAlpha" type="matrix" values="0 0 0 0 0 0 0 0 0 0 0 0 0 0 0 0 0 0 127 0" result="hardAlpha"/>
<feMorphology radius="2" operator="erode" in="SourceAlpha" result="effect1_innerShadow_8462_308824"/>
<feOffset/>
<feGaussianBlur stdDeviation="0.5"/>
<feComposite in2="hardAlpha" operator="arithmetic" k2="-1" k3="1"/>
<feColorMatrix type="matrix" values="0 0 0 0 1 0 0 0 0 1 0 0 0 0 1 0 0 0 1 0"/>
<feBlend mode="normal" in2="shape" result="effect1_innerShadow_8462_308824"/>
</filter>
<linearGradient id="paint0_linear_8462_308824" x1="8.98423" y1="101.043" x2="8.98423" y2="268.635" gradientUnits="userSpaceOnUse">
<stop stop-color="#F6F6F6"/>
<stop offset="1" stop-color="#ABABAB"/>
</linearGradient>
<clipPath id="clip0_8462_308824">
<rect width="132" height="194" rx="8" fill="white"/>
</clipPath>
</defs>
</svg>
