<svg width="132" height="194" viewBox="0 0 132 194" fill="none" xmlns="http://www.w3.org/2000/svg">
<g clip-path="url(#clip0_8462_309179)">
<g filter="url(#filter0_i_8462_309179)">
<rect width="132" height="194" rx="8" fill="url(#paint0_linear_8462_309179)"/>
<rect width="132" height="194" rx="8" fill="white" fill-opacity="0.5"/>
</g>
<path fill-rule="evenodd" clip-rule="evenodd" d="M83.0527 132H90.0527V151H83.0527V176.133C84.0713 179.002 86.3255 183.432 91.028 186.132C91.6736 186.494 92.0527 187.187 92.0527 187.911C92.0527 189.066 91.0997 190 89.9212 190H83.0527H79.0527H77.0527H73.0527H66.1842C65.0058 190 64.0527 189.066 64.0527 187.911C64.0527 187.187 64.4319 186.494 65.0775 186.132C69.7799 183.432 72.0342 179.002 73.0527 176.133V151H66.0527V132H73.0527H83.0527Z" fill="#212121"/>
<path fill-rule="evenodd" clip-rule="evenodd" d="M100.053 118.5C100.053 130.374 90.203 140 78.0527 140C65.9025 140 56.0527 130.374 56.0527 118.5C56.0527 106.626 65.9025 97 78.0527 97C90.203 97 100.053 106.626 100.053 118.5ZM54.2826 175C65.4553 175 74.5125 165.822 74.5125 154.5C74.5125 143.178 65.4553 134 54.2826 134C43.11 134 34.0527 143.178 34.0527 154.5C34.0527 165.822 43.11 175 54.2826 175ZM101.823 175C112.995 175 122.053 165.822 122.053 154.5C122.053 143.178 112.995 134 101.823 134C90.6502 134 81.593 143.178 81.593 154.5C81.593 165.822 90.6502 175 101.823 175Z" fill="#212121"/>
<path fill-rule="evenodd" clip-rule="evenodd" d="M31.8479 81.4043H34.4349V88.4788H31.8479V97.8366C32.2243 98.9052 33.0574 100.554 34.7953 101.56C35.0339 101.695 35.174 101.953 35.174 102.222C35.174 102.652 34.8218 103 34.3863 103H30.3696V103H29.6305V103H25.6139C25.1784 103 24.8262 102.652 24.8262 102.222C24.8262 101.953 24.9663 101.695 25.2049 101.56C26.9427 100.554 27.7758 98.9052 28.1523 97.8367V88.4788H25.5653V81.4043H28.1523H31.8479Z" fill="#212121"/>
<path fill-rule="evenodd" clip-rule="evenodd" d="M38.0371 76.5638C38.0371 80.8822 34.4388 84.3829 30.0001 84.3829C25.5614 84.3829 21.9631 80.8822 21.9631 76.5638C21.9631 72.2454 25.5614 68.7446 30.0001 68.7446C34.4388 68.7446 38.0371 72.2454 38.0371 76.5638ZM21.2155 97.4148C25.3445 97.4148 28.6918 93.9974 28.6918 89.7819C28.6918 85.5663 25.3445 82.1489 21.2155 82.1489C17.0865 82.1489 13.7393 85.5663 13.7393 89.7819C13.7393 93.9974 17.0865 97.4148 21.2155 97.4148ZM38.7847 97.4148C42.9138 97.4148 46.261 93.9974 46.261 89.7819C46.261 85.5663 42.9138 82.1489 38.7847 82.1489C34.6557 82.1489 31.3085 85.5663 31.3085 89.7819C31.3085 93.9974 34.6557 97.4148 38.7847 97.4148Z" fill="#212121"/>
<path d="M27 92H33V101H27V92Z" fill="#212121"/>
<path d="M41.336 44.1611V33.4748V23.9392C41.1136 18.922 39.9552 13.8052 34.6082 11.1509C32.0459 9.86208 22.541 8.38149 17.8231 14.4956C15.6597 17.3034 15 22.1287 15 28.6801C15 34.0194 16.1124 37.9625 17.9075 40.5018C19.7179 43.0257 22.2112 44.2838 26.2387 44.2838C29.2919 44.2838 31.5626 43.1715 33.0586 40.9698C33.0586 40.9698 33.304 48.0582 32.9205 50.5207C32.4909 52.2544 31.555 53.083 30.8492 53.4589C29.0004 54.5712 26.1619 53.9498 25.1723 52.638C24.643 51.9399 24.0753 50.8736 24.0063 49.347H15.9896C15.9896 49.347 16.1124 55.3077 19.1963 58.1308C21.1832 59.9566 23.4002 60.9999 28.3023 60.9999C32.8054 60.9999 35.92 59.4349 38.0757 56.9033C41.1366 53.3898 41.336 48.0505 41.336 44.1611ZM32.9588 32.6462C32.8668 34.4107 31.7544 36.0217 30.2125 36.7428C29.6678 36.9959 29.0694 37.1417 28.4404 37.1417C27.6272 37.1417 24.6123 36.8502 23.9142 32.6846C23.638 31.0276 23.5997 28.3579 23.5997 26.4707C23.5997 24.5836 23.8605 21.9062 23.9756 21.2081C24.3438 19.0218 26.1926 17.173 28.4404 17.173C32.115 17.173 32.8898 20.464 32.9512 21.6838V32.6462H32.9588Z" fill="#212121"/>
</g>
<defs>
<filter id="filter0_i_8462_309179" x="0" y="0" width="132" height="194" filterUnits="userSpaceOnUse" color-interpolation-filters="sRGB">
<feFlood flood-opacity="0" result="BackgroundImageFix"/>
<feBlend mode="normal" in="SourceGraphic" in2="BackgroundImageFix" result="shape"/>
<feColorMatrix in="SourceAlpha" type="matrix" values="0 0 0 0 0 0 0 0 0 0 0 0 0 0 0 0 0 0 127 0" result="hardAlpha"/>
<feMorphology radius="2" operator="erode" in="SourceAlpha" result="effect1_innerShadow_8462_309179"/>
<feOffset/>
<feGaussianBlur stdDeviation="0.5"/>
<feComposite in2="hardAlpha" operator="arithmetic" k2="-1" k3="1"/>
<feColorMatrix type="matrix" values="0 0 0 0 1 0 0 0 0 1 0 0 0 0 1 0 0 0 1 0"/>
<feBlend mode="normal" in2="shape" result="effect1_innerShadow_8462_309179"/>
</filter>
<linearGradient id="paint0_linear_8462_309179" x1="8.98423" y1="101.043" x2="8.98423" y2="268.635" gradientUnits="userSpaceOnUse">
<stop stop-color="#F6F6F6"/>
<stop offset="1" stop-color="#ABABAB"/>
</linearGradient>
<clipPath id="clip0_8462_309179">
<rect width="132" height="194" rx="8" fill="white"/>
</clipPath>
</defs>
</svg>
