<svg width="132" height="194" viewBox="0 0 132 194" fill="none" xmlns="http://www.w3.org/2000/svg">
<g clip-path="url(#clip0_8462_309749)">
<g filter="url(#filter0_i_8462_309749)">
<rect width="132" height="194" rx="8" fill="url(#paint0_linear_8462_309749)"/>
<rect width="132" height="194" rx="8" fill="white" fill-opacity="0.5"/>
</g>
<path d="M44.1466 139.682C43.4915 140.437 43.4914 141.563 44.1463 142.318C61.8543 162.72 76.6607 181.743 81.4056 187.915C82.2137 188.966 83.7864 188.966 84.5945 187.915C89.3407 181.742 104.153 162.713 121.854 142.318C122.509 141.563 122.509 140.437 121.854 139.682C104.153 119.287 89.3414 100.259 84.5949 94.0856C83.7866 93.0343 82.2136 93.0346 81.4056 94.0859C76.6608 100.26 61.8545 119.288 44.1466 139.682Z" fill="#CD1F3C"/>
<path d="M44.9681 85.9611C39.3148 80.251 34.3752 73.7562 29.5219 66.6289L29.502 66.6042C24.6407 73.748 19.6852 80.2592 14.0159 85.9816L14 86.0021L14.004 86.0062C19.6812 91.7328 24.6407 98.248 29.502 105.396L29.514 105.384C34.3712 98.248 39.3188 91.7451 44.9801 86.0268L45 86.0021L44.9681 85.9611Z" fill="#CD1F3C"/>
<path fill-rule="evenodd" clip-rule="evenodd" d="M29.5085 61C34.3118 61 37.854 59.6046 40.135 56.8137C42.4379 54.0006 43.5894 49.4599 43.5894 43.1915C43.5894 37.2997 42.5915 32.8586 40.5956 29.8684C38.6216 26.856 35.3536 25.3498 30.7916 25.3498C27.6114 25.3498 25.1439 26.3244 23.3893 28.2736L23.9815 17.4756H41.2207V10H16.7437L15.4277 36.5134H23.817C23.817 35.7603 24.2447 34.9629 25.1001 34.1212L25.1589 34.0629C26.0094 33.2379 27.1742 32.8254 28.6532 32.8254C32.3159 32.8254 34.1473 35.7049 34.1473 41.4638V44.886C34.1473 50.645 32.4585 53.5244 29.0809 53.5244C27.063 53.5244 25.6813 52.8267 24.9356 51.4313C24.2118 50.0137 23.8499 47.5329 23.8499 43.9889H15C15 50.2352 16.0308 54.6319 18.0925 57.1791C20.1761 59.7264 23.9815 61 29.5085 61Z" fill="#CD1F3C"/>
</g>
<defs>
<filter id="filter0_i_8462_309749" x="0" y="0" width="132" height="194" filterUnits="userSpaceOnUse" color-interpolation-filters="sRGB">
<feFlood flood-opacity="0" result="BackgroundImageFix"/>
<feBlend mode="normal" in="SourceGraphic" in2="BackgroundImageFix" result="shape"/>
<feColorMatrix in="SourceAlpha" type="matrix" values="0 0 0 0 0 0 0 0 0 0 0 0 0 0 0 0 0 0 127 0" result="hardAlpha"/>
<feMorphology radius="2" operator="erode" in="SourceAlpha" result="effect1_innerShadow_8462_309749"/>
<feOffset/>
<feGaussianBlur stdDeviation="0.5"/>
<feComposite in2="hardAlpha" operator="arithmetic" k2="-1" k3="1"/>
<feColorMatrix type="matrix" values="0 0 0 0 1 0 0 0 0 1 0 0 0 0 1 0 0 0 1 0"/>
<feBlend mode="normal" in2="shape" result="effect1_innerShadow_8462_309749"/>
</filter>
<linearGradient id="paint0_linear_8462_309749" x1="8.98423" y1="101.043" x2="8.98423" y2="268.635" gradientUnits="userSpaceOnUse">
<stop stop-color="#F6F6F6"/>
<stop offset="1" stop-color="#ABABAB"/>
</linearGradient>
<clipPath id="clip0_8462_309749">
<rect width="132" height="194" rx="8" fill="white"/>
</clipPath>
</defs>
</svg>
