<svg width="132" height="194" viewBox="0 0 132 194" fill="none" xmlns="http://www.w3.org/2000/svg">
<g clip-path="url(#clip0_8462_309176)">
<g filter="url(#filter0_i_8462_309176)">
<rect width="132" height="194" rx="8" fill="url(#paint0_linear_8462_309176)"/>
<rect width="132" height="194" rx="8" fill="white" fill-opacity="0.5"/>
</g>
<path fill-rule="evenodd" clip-rule="evenodd" d="M83.0527 132H90.0527V151H83.0527V176.133C84.0713 179.002 86.3255 183.432 91.028 186.132C91.6736 186.494 92.0527 187.187 92.0527 187.911C92.0527 189.066 91.0997 190 89.9212 190H83.0527H79.0527H77.0527H73.0527H66.1842C65.0058 190 64.0527 189.066 64.0527 187.911C64.0527 187.187 64.4319 186.494 65.0775 186.132C69.7799 183.432 72.0342 179.002 73.0527 176.133V151H66.0527V132H73.0527H83.0527Z" fill="#212121"/>
<path fill-rule="evenodd" clip-rule="evenodd" d="M100.053 118.5C100.053 130.374 90.203 140 78.0527 140C65.9025 140 56.0527 130.374 56.0527 118.5C56.0527 106.626 65.9025 97 78.0527 97C90.203 97 100.053 106.626 100.053 118.5ZM54.2826 175C65.4553 175 74.5125 165.822 74.5125 154.5C74.5125 143.178 65.4553 134 54.2826 134C43.11 134 34.0527 143.178 34.0527 154.5C34.0527 165.822 43.11 175 54.2826 175ZM101.823 175C112.995 175 122.053 165.822 122.053 154.5C122.053 143.178 112.995 134 101.823 134C90.6502 134 81.593 143.178 81.593 154.5C81.593 165.822 90.6502 175 101.823 175Z" fill="#212121"/>
<path fill-rule="evenodd" clip-rule="evenodd" d="M31.8479 81.4043H34.4349V88.4788H31.8479V97.8366C32.2243 98.9052 33.0574 100.554 34.7953 101.56C35.0339 101.695 35.174 101.953 35.174 102.222C35.174 102.652 34.8218 103 34.3863 103H30.3696V103H29.6305V103H25.6139C25.1784 103 24.8262 102.652 24.8262 102.222C24.8262 101.953 24.9663 101.695 25.2049 101.56C26.9427 100.554 27.7758 98.9052 28.1523 97.8367V88.4788H25.5653V81.4043H28.1523H31.8479Z" fill="#212121"/>
<path fill-rule="evenodd" clip-rule="evenodd" d="M38.0371 76.5638C38.0371 80.8822 34.4388 84.3829 30.0001 84.3829C25.5614 84.3829 21.9631 80.8822 21.9631 76.5638C21.9631 72.2454 25.5614 68.7446 30.0001 68.7446C34.4388 68.7446 38.0371 72.2454 38.0371 76.5638ZM21.2155 97.4148C25.3445 97.4148 28.6918 93.9974 28.6918 89.7819C28.6918 85.5663 25.3445 82.1489 21.2155 82.1489C17.0865 82.1489 13.7393 85.5663 13.7393 89.7819C13.7393 93.9974 17.0865 97.4148 21.2155 97.4148ZM38.7847 97.4148C42.9138 97.4148 46.261 93.9974 46.261 89.7819C46.261 85.5663 42.9138 82.1489 38.7847 82.1489C34.6557 82.1489 31.3085 85.5663 31.3085 89.7819C31.3085 93.9974 34.6557 97.4148 38.7847 97.4148Z" fill="#212121"/>
<path d="M27 92H33V101H27V92Z" fill="#212121"/>
<path fill-rule="evenodd" clip-rule="evenodd" d="M27.891 61C33.2227 61 36.8559 59.4693 38.7908 56.408C40.7472 53.3467 41.7254 48.6462 41.7254 42.3065C41.7254 36.9438 40.8117 32.9815 38.9843 30.4195C37.1569 27.8576 34.2223 26.5766 30.1806 26.5766C26.9773 26.5766 24.634 27.7599 23.1506 30.1264V25.3391C23.1506 19.9981 25.0317 17.3276 28.7939 17.3276C29.7184 17.3276 30.4923 17.6315 31.1158 18.2395C31.7393 18.8474 32.1047 19.9221 32.2122 21.4636H40.7257V20.2586C40.7257 17.5447 39.7797 15.1564 37.8879 13.0939C35.996 11.0313 32.8464 10 28.4392 10C23.0001 10 19.2378 11.5524 17.1524 14.6571C15.0886 17.7401 14.0566 22.8748 14.0566 30.0613V42.4693C14.0566 48.4617 15.0563 53.0536 17.0557 56.2452C19.0551 59.4151 22.6668 61 27.891 61ZM27.7623 53.6724C26.1069 53.6724 24.946 53.0645 24.2796 51.8486C23.6131 50.6111 23.2799 48.516 23.2799 45.5632V41.2318C23.2799 36.3467 24.8278 33.9042 27.9236 33.9042C30.9549 33.9042 32.4705 35.9342 32.4705 39.9942V46.9636C32.4705 49.5255 32.0836 51.2842 31.3096 52.2395C30.5572 53.1948 29.3747 53.6724 27.7623 53.6724Z" fill="#212121"/>
</g>
<defs>
<filter id="filter0_i_8462_309176" x="0" y="0" width="132" height="194" filterUnits="userSpaceOnUse" color-interpolation-filters="sRGB">
<feFlood flood-opacity="0" result="BackgroundImageFix"/>
<feBlend mode="normal" in="SourceGraphic" in2="BackgroundImageFix" result="shape"/>
<feColorMatrix in="SourceAlpha" type="matrix" values="0 0 0 0 0 0 0 0 0 0 0 0 0 0 0 0 0 0 127 0" result="hardAlpha"/>
<feMorphology radius="2" operator="erode" in="SourceAlpha" result="effect1_innerShadow_8462_309176"/>
<feOffset/>
<feGaussianBlur stdDeviation="0.5"/>
<feComposite in2="hardAlpha" operator="arithmetic" k2="-1" k3="1"/>
<feColorMatrix type="matrix" values="0 0 0 0 1 0 0 0 0 1 0 0 0 0 1 0 0 0 1 0"/>
<feBlend mode="normal" in2="shape" result="effect1_innerShadow_8462_309176"/>
</filter>
<linearGradient id="paint0_linear_8462_309176" x1="8.98423" y1="101.043" x2="8.98423" y2="268.635" gradientUnits="userSpaceOnUse">
<stop stop-color="#F6F6F6"/>
<stop offset="1" stop-color="#ABABAB"/>
</linearGradient>
<clipPath id="clip0_8462_309176">
<rect width="132" height="194" rx="8" fill="white"/>
</clipPath>
</defs>
</svg>
