<svg width="132" height="194" viewBox="0 0 132 194" fill="none" xmlns="http://www.w3.org/2000/svg">
<g clip-path="url(#clip0_8462_309750)">
<g filter="url(#filter0_i_8462_309750)">
<rect width="132" height="194" rx="8" fill="url(#paint0_linear_8462_309750)"/>
<rect width="132" height="194" rx="8" fill="white" fill-opacity="0.5"/>
</g>
<path d="M44.1466 139.682C43.4915 140.437 43.4914 141.563 44.1463 142.318C61.8543 162.72 76.6607 181.743 81.4056 187.915C82.2137 188.966 83.7864 188.966 84.5945 187.915C89.3407 181.742 104.153 162.713 121.854 142.318C122.509 141.563 122.509 140.437 121.854 139.682C104.153 119.287 89.3414 100.259 84.5949 94.0856C83.7866 93.0343 82.2136 93.0346 81.4056 94.0859C76.6608 100.26 61.8545 119.288 44.1466 139.682Z" fill="#CD1F3C"/>
<path d="M44.9681 85.9611C39.3148 80.251 34.3752 73.7562 29.5219 66.6289L29.502 66.6042C24.6407 73.748 19.6852 80.2592 14.0159 85.9816L14 86.0021L14.004 86.0062C19.6812 91.7328 24.6407 98.248 29.502 105.396L29.514 105.384C34.3712 98.248 39.3188 91.7451 44.9801 86.0268L45 86.0021L44.9681 85.9611Z" fill="#CD1F3C"/>
<path fill-rule="evenodd" clip-rule="evenodd" d="M27.891 61C33.2227 61 36.8559 59.4693 38.7908 56.408C40.7472 53.3467 41.7254 48.6462 41.7254 42.3065C41.7254 36.9438 40.8117 32.9815 38.9843 30.4195C37.1569 27.8576 34.2223 26.5766 30.1806 26.5766C26.9773 26.5766 24.634 27.7599 23.1506 30.1264V25.3391C23.1506 19.9981 25.0317 17.3276 28.7939 17.3276C29.7184 17.3276 30.4923 17.6315 31.1158 18.2395C31.7393 18.8474 32.1047 19.9221 32.2122 21.4636H40.7257V20.2586C40.7257 17.5447 39.7797 15.1564 37.8879 13.0939C35.996 11.0313 32.8464 10 28.4392 10C23.0001 10 19.2378 11.5524 17.1524 14.6571C15.0886 17.7401 14.0566 22.8748 14.0566 30.0613V42.4693C14.0566 48.4617 15.0563 53.0536 17.0557 56.2452C19.0551 59.4151 22.6668 61 27.891 61ZM27.7623 53.6724C26.1069 53.6724 24.946 53.0645 24.2796 51.8486C23.6131 50.6111 23.2799 48.516 23.2799 45.5632V41.2318C23.2799 36.3467 24.8278 33.9042 27.9236 33.9042C30.9549 33.9042 32.4705 35.9342 32.4705 39.9942V46.9636C32.4705 49.5255 32.0836 51.2842 31.3096 52.2395C30.5572 53.1948 29.3747 53.6724 27.7623 53.6724Z" fill="#CD1F3C"/>
</g>
<defs>
<filter id="filter0_i_8462_309750" x="0" y="0" width="132" height="194" filterUnits="userSpaceOnUse" color-interpolation-filters="sRGB">
<feFlood flood-opacity="0" result="BackgroundImageFix"/>
<feBlend mode="normal" in="SourceGraphic" in2="BackgroundImageFix" result="shape"/>
<feColorMatrix in="SourceAlpha" type="matrix" values="0 0 0 0 0 0 0 0 0 0 0 0 0 0 0 0 0 0 127 0" result="hardAlpha"/>
<feMorphology radius="2" operator="erode" in="SourceAlpha" result="effect1_innerShadow_8462_309750"/>
<feOffset/>
<feGaussianBlur stdDeviation="0.5"/>
<feComposite in2="hardAlpha" operator="arithmetic" k2="-1" k3="1"/>
<feColorMatrix type="matrix" values="0 0 0 0 1 0 0 0 0 1 0 0 0 0 1 0 0 0 1 0"/>
<feBlend mode="normal" in2="shape" result="effect1_innerShadow_8462_309750"/>
</filter>
<linearGradient id="paint0_linear_8462_309750" x1="8.98423" y1="101.043" x2="8.98423" y2="268.635" gradientUnits="userSpaceOnUse">
<stop stop-color="#F6F6F6"/>
<stop offset="1" stop-color="#ABABAB"/>
</linearGradient>
<clipPath id="clip0_8462_309750">
<rect width="132" height="194" rx="8" fill="white"/>
</clipPath>
</defs>
</svg>
