<svg width="132" height="194" viewBox="0 0 132 194" fill="none" xmlns="http://www.w3.org/2000/svg">
<g clip-path="url(#clip0_8462_309180)">
<g filter="url(#filter0_i_8462_309180)">
<rect width="132" height="194" rx="8" fill="url(#paint0_linear_8462_309180)"/>
<rect width="132" height="194" rx="8" fill="white" fill-opacity="0.5"/>
</g>
<path fill-rule="evenodd" clip-rule="evenodd" d="M83.0527 132H90.0527V151H83.0527V176.133C84.0713 179.002 86.3255 183.432 91.028 186.132C91.6736 186.494 92.0527 187.187 92.0527 187.911C92.0527 189.066 91.0997 190 89.9212 190H83.0527H79.0527H77.0527H73.0527H66.1842C65.0058 190 64.0527 189.066 64.0527 187.911C64.0527 187.187 64.4319 186.494 65.0775 186.132C69.7799 183.432 72.0342 179.002 73.0527 176.133V151H66.0527V132H73.0527H83.0527Z" fill="#212121"/>
<path fill-rule="evenodd" clip-rule="evenodd" d="M100.053 118.5C100.053 130.374 90.203 140 78.0527 140C65.9025 140 56.0527 130.374 56.0527 118.5C56.0527 106.626 65.9025 97 78.0527 97C90.203 97 100.053 106.626 100.053 118.5ZM54.2826 175C65.4553 175 74.5125 165.822 74.5125 154.5C74.5125 143.178 65.4553 134 54.2826 134C43.11 134 34.0527 143.178 34.0527 154.5C34.0527 165.822 43.11 175 54.2826 175ZM101.823 175C112.995 175 122.053 165.822 122.053 154.5C122.053 143.178 112.995 134 101.823 134C90.6502 134 81.593 143.178 81.593 154.5C81.593 165.822 90.6502 175 101.823 175Z" fill="#212121"/>
<path fill-rule="evenodd" clip-rule="evenodd" d="M35.8479 81.4043H38.4349V88.4788H35.8479V97.8366C36.2243 98.9052 37.0574 100.554 38.7953 101.56C39.0339 101.695 39.174 101.953 39.174 102.222C39.174 102.652 38.8218 103 38.3863 103H34.3696V103H33.6305V103H29.6139C29.1784 103 28.8262 102.652 28.8262 102.222C28.8262 101.953 28.9663 101.695 29.2049 101.56C30.9427 100.554 31.7758 98.9052 32.1523 97.8367V88.4788H29.5653V81.4043H32.1523H35.8479Z" fill="#212121"/>
<path fill-rule="evenodd" clip-rule="evenodd" d="M42.0371 76.5638C42.0371 80.8822 38.4388 84.3829 34.0001 84.3829C29.5614 84.3829 25.9631 80.8822 25.9631 76.5638C25.9631 72.2454 29.5614 68.7446 34.0001 68.7446C38.4388 68.7446 42.0371 72.2454 42.0371 76.5638ZM25.2155 97.4148C29.3445 97.4148 32.6918 93.9974 32.6918 89.7819C32.6918 85.5663 29.3445 82.1489 25.2155 82.1489C21.0865 82.1489 17.7393 85.5663 17.7393 89.7819C17.7393 93.9974 21.0865 97.4148 25.2155 97.4148ZM42.7847 97.4148C46.9138 97.4148 50.261 93.9974 50.261 89.7819C50.261 85.5663 46.9138 82.1489 42.7847 82.1489C38.6557 82.1489 35.3085 85.5663 35.3085 89.7819C35.3085 93.9974 38.6557 97.4148 42.7847 97.4148Z" fill="#212121"/>
<path d="M31 92H37V101H31V92Z" fill="#212121"/>
<path fill-rule="evenodd" clip-rule="evenodd" d="M25 59.9905V10.228H19.2556C18.2123 15.0263 12.7994 18.6955 7 18.6955V25.3391H16.8048V59.9905H25Z" fill="#212121"/>
<path fill-rule="evenodd" clip-rule="evenodd" d="M43.1095 61C51.7032 61 56 56.1801 56 46.5402V24.3295C56 14.7765 51.7032 10 43.1095 10C34.3698 10 30 14.6571 30 23.9713V46.4425C30 56.1475 34.3698 61 43.1095 61ZM42.7471 53.6724C39.5824 53.6724 38 51.3493 38 46.7031V24.2969C38 19.6507 39.6602 17.3276 42.9805 17.3276C46.3268 17.3276 48 19.6507 48 24.2969V46.5728C48 51.3059 46.249 53.6724 42.7471 53.6724Z" fill="#212121"/>
</g>
<defs>
<filter id="filter0_i_8462_309180" x="0" y="0" width="132" height="194" filterUnits="userSpaceOnUse" color-interpolation-filters="sRGB">
<feFlood flood-opacity="0" result="BackgroundImageFix"/>
<feBlend mode="normal" in="SourceGraphic" in2="BackgroundImageFix" result="shape"/>
<feColorMatrix in="SourceAlpha" type="matrix" values="0 0 0 0 0 0 0 0 0 0 0 0 0 0 0 0 0 0 127 0" result="hardAlpha"/>
<feMorphology radius="2" operator="erode" in="SourceAlpha" result="effect1_innerShadow_8462_309180"/>
<feOffset/>
<feGaussianBlur stdDeviation="0.5"/>
<feComposite in2="hardAlpha" operator="arithmetic" k2="-1" k3="1"/>
<feColorMatrix type="matrix" values="0 0 0 0 1 0 0 0 0 1 0 0 0 0 1 0 0 0 1 0"/>
<feBlend mode="normal" in2="shape" result="effect1_innerShadow_8462_309180"/>
</filter>
<linearGradient id="paint0_linear_8462_309180" x1="8.98423" y1="101.043" x2="8.98423" y2="268.635" gradientUnits="userSpaceOnUse">
<stop stop-color="#F6F6F6"/>
<stop offset="1" stop-color="#ABABAB"/>
</linearGradient>
<clipPath id="clip0_8462_309180">
<rect width="132" height="194" rx="8" fill="white"/>
</clipPath>
</defs>
</svg>
