<svg width="132" height="194" viewBox="0 0 132 194" fill="none" xmlns="http://www.w3.org/2000/svg">
<g clip-path="url(#clip0_8462_308826)">
<g filter="url(#filter0_i_8462_308826)">
<rect width="132" height="194" rx="8" fill="url(#paint0_linear_8462_308826)"/>
<rect width="132" height="194" rx="8" fill="white" fill-opacity="0.5"/>
</g>
<path d="M78.796 122.462C78.8434 122.701 79.1471 122.701 79.1945 122.462C81.4053 111.057 89.1477 102.458 100.069 102.02C100.353 102.01 100.638 102 100.923 102C113.058 102 121 112.321 121 125.05C121 125.767 120.962 126.483 120.896 127.19L120.905 127.18C120.905 127.18 120.867 127.757 120.715 128.742C120.696 128.842 120.687 128.941 120.668 129.041C120.231 131.688 119.007 136.884 115.687 142.805C115.544 143.054 115.411 143.283 115.269 143.492C107.438 157.105 90.6368 168.818 79.9033 188.304C79.5128 189.013 78.4777 189.013 78.0873 188.304C67.3537 168.818 50.5527 157.105 42.7309 143.492C42.5886 143.273 42.4558 143.054 42.3135 142.805C38.9925 136.884 37.7686 131.688 37.3321 129.041C37.3131 128.941 37.3036 128.842 37.2846 128.742C37.1328 127.747 37.0949 127.18 37.0949 127.18L37.1044 127.19C37.038 126.473 37 125.767 37 125.05C37 112.321 44.9417 102 57.0773 102C57.3619 102 57.6466 102.01 57.9217 102.02C68.8428 102.458 76.5852 111.057 78.796 122.462Z" fill="#CD1F3C"/>
<path d="M33.9137 76.2006C33.9302 76.2875 34.0358 76.2875 34.0523 76.2006C34.8213 72.0531 37.5143 68.9262 41.3129 68.767C41.412 68.7634 41.511 68.7598 41.61 68.7598C45.831 68.7598 48.5934 72.5128 48.5934 77.1416C48.5934 77.4022 48.5802 77.6627 48.5571 77.9197L48.5604 77.9161C48.5604 77.9161 48.5472 78.126 48.4944 78.4843C48.4878 78.5205 48.4845 78.5566 48.4779 78.5928C48.326 79.5555 47.9003 81.4447 46.7452 83.598C46.6957 83.6885 46.6495 83.7718 46.6 83.8478C43.8805 88.79 38.0509 93.0437 34.3167 100.109C34.1764 100.375 33.7897 100.375 33.6493 100.109C29.9152 93.0437 24.0856 88.79 21.3693 83.8478C21.3198 83.7681 21.2736 83.6885 21.2241 83.598C20.069 81.4447 19.6433 79.5555 19.4915 78.5928C19.4849 78.5566 19.4816 78.5205 19.475 78.4843C19.4222 78.1224 19.409 77.9161 19.409 77.9161L19.4123 77.9197C19.3892 77.6591 19.376 77.4022 19.376 77.1416C19.376 72.5128 22.1383 68.7598 26.3594 68.7598C26.4584 68.7598 26.5574 68.7634 26.6531 68.767C30.4517 68.9262 33.1448 72.0531 33.9137 76.2006Z" fill="#CD1F3C"/>
<path fill-rule="evenodd" clip-rule="evenodd" d="M25 59.9905V10.228H19.2556C18.2123 15.0263 12.7994 18.6955 7 18.6955V25.3391H16.8048V59.9905H25Z" fill="#CD1F3C"/>
<path fill-rule="evenodd" clip-rule="evenodd" d="M43.1095 61C51.7032 61 56 56.1801 56 46.5402V24.3295C56 14.7765 51.7032 10 43.1095 10C34.3698 10 30 14.6571 30 23.9713V46.4425C30 56.1475 34.3698 61 43.1095 61ZM42.7471 53.6724C39.5824 53.6724 38 51.3493 38 46.7031V24.2969C38 19.6507 39.6602 17.3276 42.9805 17.3276C46.3268 17.3276 48 19.6507 48 24.2969V46.5728C48 51.3059 46.249 53.6724 42.7471 53.6724Z" fill="#CD1F3C"/>
</g>
<defs>
<filter id="filter0_i_8462_308826" x="0" y="0" width="132" height="194" filterUnits="userSpaceOnUse" color-interpolation-filters="sRGB">
<feFlood flood-opacity="0" result="BackgroundImageFix"/>
<feBlend mode="normal" in="SourceGraphic" in2="BackgroundImageFix" result="shape"/>
<feColorMatrix in="SourceAlpha" type="matrix" values="0 0 0 0 0 0 0 0 0 0 0 0 0 0 0 0 0 0 127 0" result="hardAlpha"/>
<feMorphology radius="2" operator="erode" in="SourceAlpha" result="effect1_innerShadow_8462_308826"/>
<feOffset/>
<feGaussianBlur stdDeviation="0.5"/>
<feComposite in2="hardAlpha" operator="arithmetic" k2="-1" k3="1"/>
<feColorMatrix type="matrix" values="0 0 0 0 1 0 0 0 0 1 0 0 0 0 1 0 0 0 1 0"/>
<feBlend mode="normal" in2="shape" result="effect1_innerShadow_8462_308826"/>
</filter>
<linearGradient id="paint0_linear_8462_308826" x1="8.98423" y1="101.043" x2="8.98423" y2="268.635" gradientUnits="userSpaceOnUse">
<stop stop-color="#F6F6F6"/>
<stop offset="1" stop-color="#ABABAB"/>
</linearGradient>
<clipPath id="clip0_8462_308826">
<rect width="132" height="194" rx="8" fill="white"/>
</clipPath>
</defs>
</svg>
