<svg width="132" height="194" viewBox="0 0 132 194" fill="none" xmlns="http://www.w3.org/2000/svg">
<g clip-path="url(#clip0_8462_308246)">
<g filter="url(#filter0_i_8462_308246)">
<rect width="132" height="194" rx="8" fill="url(#paint0_linear_8462_308246)"/>
<rect width="132" height="194" rx="8" fill="white" fill-opacity="0.5"/>
</g>
<path fill-rule="evenodd" clip-rule="evenodd" d="M88 132H92V146H88V176.133C89.0185 179.002 91.2728 183.432 95.9752 186.132C96.6208 186.494 97 187.187 97 187.911C97 189.066 96.047 190 94.8685 190H88H84H82H78H71.1315C69.953 190 69 189.066 69 187.911C69 187.187 69.3792 186.494 70.0248 186.132C74.7272 183.432 76.9815 179.002 78 176.133V146H74V132H78H88Z" fill="#212121"/>
<path fill-rule="evenodd" clip-rule="evenodd" d="M86.4912 150.797C86.0265 152.386 85.7575 154.057 85.7575 155.789C85.7575 165.844 94.1096 174 104.406 174C112.562 174 119.484 168.877 122.015 161.748C122.015 161.748 122.211 161.222 122.223 161.187C124.338 154.105 121.465 147.179 121.465 147.179C117.564 137.745 107.854 128.323 99.2577 118.173C90.2331 107.533 82.9939 97 82.9939 97C82.9939 97 75.7546 107.533 66.7423 118.173C58.1456 128.323 48.4363 137.745 44.5354 147.179C44.5354 147.179 41.6617 154.117 43.7772 161.187C43.7894 161.222 43.9851 161.748 43.9851 161.748C46.5164 168.877 53.4255 174 61.5941 174C71.8904 174 80.2425 165.844 80.2425 155.789C80.2425 154.057 79.9735 152.386 79.5088 150.797" fill="#212121"/>
<path fill-rule="evenodd" clip-rule="evenodd" d="M36.9022 81.4043H30.0973V86.6171H31.6095V97.8367C31.2244 98.9052 30.3722 100.554 28.5944 101.56C28.3504 101.695 28.207 101.953 28.207 102.222C28.207 102.652 28.5673 103 29.0128 103H31.6095H33.1217H33.8778H35.39H37.9866C38.4321 103 38.7924 102.652 38.7924 102.222C38.7924 101.953 38.6491 101.695 38.405 101.56C36.6272 100.554 35.775 98.9052 35.39 97.8367V86.6171H36.9022V81.4043Z" fill="#212121"/>
<path fill-rule="evenodd" clip-rule="evenodd" d="M35.8197 88.4032C35.6441 88.9946 35.9999 88.6171 35.9999 89.2618C35.9999 93.0057 38.1073 97.0425 41.9999 97.0425C45.0834 97.0425 47.2925 95.135 48.2494 92.4805C48.2494 92.4805 48.3234 92.2849 48.328 92.2716C49.1278 89.6349 48.0414 87.056 48.0414 87.056C46.5667 83.5433 42.896 80.0351 39.6461 76.2557C36.2344 72.294 33.4976 68.3723 33.4976 68.3723C33.4976 68.3723 30.7608 72.294 27.3537 76.2557C24.1037 80.0351 20.4331 83.5433 18.9584 87.056C18.9584 87.056 17.872 89.6393 18.6718 92.2716C18.6764 92.2849 18.7503 92.4805 18.7503 92.4805C19.7073 95.135 21.9117 97.0425 24.9999 97.0425C28.8924 97.0425 30.9999 93.0057 30.9999 89.2618C30.9999 88.6171 31.3557 88.9946 31.18 88.4032" fill="#212121"/>
<rect x="30.5" y="88" width="6" height="12" fill="#212121"/>
<path fill-rule="evenodd" clip-rule="evenodd" d="M25 59.9905V10.228H19.2556C18.2123 15.0263 12.7994 18.6955 7 18.6955V25.3391H16.8048V59.9905H25Z" fill="#212121"/>
<path fill-rule="evenodd" clip-rule="evenodd" d="M43.1095 61C51.7032 61 56 56.1801 56 46.5402V24.3295C56 14.7765 51.7032 10 43.1095 10C34.3698 10 30 14.6571 30 23.9713V46.4425C30 56.1475 34.3698 61 43.1095 61ZM42.7471 53.6724C39.5824 53.6724 38 51.3493 38 46.7031V24.2969C38 19.6507 39.6602 17.3276 42.9805 17.3276C46.3268 17.3276 48 19.6507 48 24.2969V46.5728C48 51.3059 46.249 53.6724 42.7471 53.6724Z" fill="#212121"/>
</g>
<defs>
<filter id="filter0_i_8462_308246" x="0" y="0" width="132" height="194" filterUnits="userSpaceOnUse" color-interpolation-filters="sRGB">
<feFlood flood-opacity="0" result="BackgroundImageFix"/>
<feBlend mode="normal" in="SourceGraphic" in2="BackgroundImageFix" result="shape"/>
<feColorMatrix in="SourceAlpha" type="matrix" values="0 0 0 0 0 0 0 0 0 0 0 0 0 0 0 0 0 0 127 0" result="hardAlpha"/>
<feMorphology radius="2" operator="erode" in="SourceAlpha" result="effect1_innerShadow_8462_308246"/>
<feOffset/>
<feGaussianBlur stdDeviation="0.5"/>
<feComposite in2="hardAlpha" operator="arithmetic" k2="-1" k3="1"/>
<feColorMatrix type="matrix" values="0 0 0 0 1 0 0 0 0 1 0 0 0 0 1 0 0 0 1 0"/>
<feBlend mode="normal" in2="shape" result="effect1_innerShadow_8462_308246"/>
</filter>
<linearGradient id="paint0_linear_8462_308246" x1="8.98423" y1="101.043" x2="8.98423" y2="268.635" gradientUnits="userSpaceOnUse">
<stop stop-color="#F6F6F6"/>
<stop offset="1" stop-color="#ABABAB"/>
</linearGradient>
<clipPath id="clip0_8462_308246">
<rect width="132" height="194" rx="8" fill="white"/>
</clipPath>
</defs>
</svg>
