<svg width="132" height="194" viewBox="0 0 132 194" fill="none" xmlns="http://www.w3.org/2000/svg">
<g clip-path="url(#clip0_8462_309172)">
<g filter="url(#filter0_i_8462_309172)">
<rect width="132" height="194" rx="8" fill="url(#paint0_linear_8462_309172)"/>
<rect width="132" height="194" rx="8" fill="white" fill-opacity="0.5"/>
</g>
<path fill-rule="evenodd" clip-rule="evenodd" d="M83.0527 132H90.0527V151H83.0527V176.133C84.0713 179.002 86.3255 183.432 91.028 186.132C91.6736 186.494 92.0527 187.187 92.0527 187.911C92.0527 189.066 91.0997 190 89.9212 190H83.0527H79.0527H77.0527H73.0527H66.1842C65.0058 190 64.0527 189.066 64.0527 187.911C64.0527 187.187 64.4319 186.494 65.0775 186.132C69.7799 183.432 72.0342 179.002 73.0527 176.133V151H66.0527V132H73.0527H83.0527Z" fill="#212121"/>
<path fill-rule="evenodd" clip-rule="evenodd" d="M100.053 118.5C100.053 130.374 90.203 140 78.0527 140C65.9025 140 56.0527 130.374 56.0527 118.5C56.0527 106.626 65.9025 97 78.0527 97C90.203 97 100.053 106.626 100.053 118.5ZM54.2826 175C65.4553 175 74.5125 165.822 74.5125 154.5C74.5125 143.178 65.4553 134 54.2826 134C43.11 134 34.0527 143.178 34.0527 154.5C34.0527 165.822 43.11 175 54.2826 175ZM101.823 175C112.995 175 122.053 165.822 122.053 154.5C122.053 143.178 112.995 134 101.823 134C90.6502 134 81.593 143.178 81.593 154.5C81.593 165.822 90.6502 175 101.823 175Z" fill="#212121"/>
<path fill-rule="evenodd" clip-rule="evenodd" d="M31.8479 81.4043H34.4349V88.4788H31.8479V97.8366C32.2243 98.9052 33.0574 100.554 34.7953 101.56C35.0339 101.695 35.174 101.953 35.174 102.222C35.174 102.652 34.8218 103 34.3863 103H30.3696V103H29.6305V103H25.6139C25.1784 103 24.8262 102.652 24.8262 102.222C24.8262 101.953 24.9663 101.695 25.2049 101.56C26.9427 100.554 27.7758 98.9052 28.1523 97.8367V88.4788H25.5653V81.4043H28.1523H31.8479Z" fill="#212121"/>
<path fill-rule="evenodd" clip-rule="evenodd" d="M38.0371 76.5639C38.0371 80.8823 34.4388 84.3831 30.0001 84.3831C25.5614 84.3831 21.9631 80.8823 21.9631 76.5639C21.9631 72.2455 25.5614 68.7448 30.0001 68.7448C34.4388 68.7448 38.0371 72.2455 38.0371 76.5639ZM21.2155 97.415C25.3445 97.415 28.6918 93.9976 28.6918 89.782C28.6918 85.5664 25.3445 82.149 21.2155 82.149C17.0865 82.149 13.7393 85.5664 13.7393 89.782C13.7393 93.9976 17.0865 97.415 21.2155 97.415ZM38.7847 97.415C42.9138 97.415 46.261 93.9976 46.261 89.782C46.261 85.5664 42.9138 82.149 38.7847 82.149C34.6557 82.149 31.3085 85.5664 31.3085 89.782C31.3085 93.9976 34.6557 97.415 38.7847 97.415Z" fill="#212121"/>
<path d="M27 92H33V101H27V92Z" fill="#212121"/>
<path fill-rule="evenodd" clip-rule="evenodd" d="M43.2616 62.0318V54.405H25.2373C25.2373 51.9192 26.9155 48.9476 30.272 45.4901L37.6227 37.7616C41.8742 33.4002 44 28.6433 44 23.491C44 19.6719 42.8029 16.4743 40.4086 13.8982C38.0366 11.2994 34.434 10 29.6007 10C20.1578 10 15.4363 15.0845 15.4363 25.2536V27.3552H24.4653C24.4653 23.6492 24.7785 21.1069 25.4051 19.7284C26.054 18.3274 27.4861 17.6268 29.7014 17.6268C32.8117 17.6268 34.3669 19.6493 34.3669 23.6944C34.3669 25.909 34.0312 27.6377 33.36 28.8806C32.711 30.1235 31.4244 31.7393 29.5 33.7279L24.9688 38.5412C20.3816 43.4224 17.6069 47.3432 16.6447 50.3035C15.6825 53.2412 15.1343 57.1507 15 62.0318H43.2616Z" fill="#212121"/>
</g>
<defs>
<filter id="filter0_i_8462_309172" x="0" y="0" width="132" height="194" filterUnits="userSpaceOnUse" color-interpolation-filters="sRGB">
<feFlood flood-opacity="0" result="BackgroundImageFix"/>
<feBlend mode="normal" in="SourceGraphic" in2="BackgroundImageFix" result="shape"/>
<feColorMatrix in="SourceAlpha" type="matrix" values="0 0 0 0 0 0 0 0 0 0 0 0 0 0 0 0 0 0 127 0" result="hardAlpha"/>
<feMorphology radius="2" operator="erode" in="SourceAlpha" result="effect1_innerShadow_8462_309172"/>
<feOffset/>
<feGaussianBlur stdDeviation="0.5"/>
<feComposite in2="hardAlpha" operator="arithmetic" k2="-1" k3="1"/>
<feColorMatrix type="matrix" values="0 0 0 0 1 0 0 0 0 1 0 0 0 0 1 0 0 0 1 0"/>
<feBlend mode="normal" in2="shape" result="effect1_innerShadow_8462_309172"/>
</filter>
<linearGradient id="paint0_linear_8462_309172" x1="8.98423" y1="101.043" x2="8.98423" y2="268.635" gradientUnits="userSpaceOnUse">
<stop stop-color="#F6F6F6"/>
<stop offset="1" stop-color="#ABABAB"/>
</linearGradient>
<clipPath id="clip0_8462_309172">
<rect width="132" height="194" rx="8" fill="white"/>
</clipPath>
</defs>
</svg>
