<svg width="132" height="194" viewBox="0 0 132 194" fill="none" xmlns="http://www.w3.org/2000/svg">
<g clip-path="url(#clip0_8462_309747)">
<g filter="url(#filter0_i_8462_309747)">
<rect width="132" height="194" rx="8" fill="url(#paint0_linear_8462_309747)"/>
<rect width="132" height="194" rx="8" fill="white" fill-opacity="0.5"/>
</g>
<path d="M44.1466 139.682C43.4915 140.437 43.4914 141.563 44.1463 142.318C61.8543 162.72 76.6607 181.743 81.4056 187.915C82.2137 188.966 83.7864 188.966 84.5945 187.915C89.3407 181.742 104.153 162.713 121.854 142.318C122.509 141.563 122.509 140.437 121.854 139.682C104.153 119.287 89.3414 100.259 84.5949 94.0856C83.7866 93.0343 82.2136 93.0346 81.4056 94.0859C76.6608 100.26 61.8545 119.288 44.1466 139.682Z" fill="#CD1F3C"/>
<path d="M44.9681 85.9611C39.3148 80.251 34.3752 73.7562 29.5219 66.6289L29.502 66.6042C24.6407 73.748 19.6852 80.2592 14.0159 85.9816L14 86.0021L14.004 86.0062C19.6812 91.7328 24.6407 98.248 29.502 105.396L29.514 105.384C34.3712 98.248 39.3188 91.7451 44.9801 86.0268L45 86.0021L44.9681 85.9611Z" fill="#CD1F3C"/>
<path fill-rule="evenodd" clip-rule="evenodd" d="M28.562 61C38.1873 61 43 55.7459 43 45.2375C43 37.9208 40.3828 33.8934 35.1483 33.1552C37.2681 32.8729 38.9336 31.8091 40.1448 29.9636C41.3778 28.1181 41.9942 25.6865 41.9942 22.6686C41.9942 14.2229 37.5276 10 28.5944 10C19.9208 10 15.584 14.2554 15.584 22.7663V24.59H24.3117V21.4962C24.3117 18.7171 25.7501 17.3276 28.6269 17.3276C31.5253 17.3276 32.9745 19.1513 32.9745 22.7989C32.9745 25.5996 32.3689 27.4559 31.1576 28.3678C29.9463 29.258 27.6752 29.7031 24.3441 29.7031V37.0307C28.9297 37.0307 31.6334 37.6929 32.4554 39.0172C33.2773 40.3199 33.6883 42.3282 33.6883 45.0421C33.6883 47.7561 33.4287 49.8729 32.9096 51.3927C32.3905 52.9125 31.0819 53.6724 28.9838 53.6724C26.8208 53.6724 25.404 52.9451 24.7335 51.4904C24.063 50.0358 23.7277 47.3001 23.7277 43.2835H15V46.4751C15 56.1584 19.5207 61 28.562 61Z" fill="#CD1F3C"/>
</g>
<defs>
<filter id="filter0_i_8462_309747" x="0" y="0" width="132" height="194" filterUnits="userSpaceOnUse" color-interpolation-filters="sRGB">
<feFlood flood-opacity="0" result="BackgroundImageFix"/>
<feBlend mode="normal" in="SourceGraphic" in2="BackgroundImageFix" result="shape"/>
<feColorMatrix in="SourceAlpha" type="matrix" values="0 0 0 0 0 0 0 0 0 0 0 0 0 0 0 0 0 0 127 0" result="hardAlpha"/>
<feMorphology radius="2" operator="erode" in="SourceAlpha" result="effect1_innerShadow_8462_309747"/>
<feOffset/>
<feGaussianBlur stdDeviation="0.5"/>
<feComposite in2="hardAlpha" operator="arithmetic" k2="-1" k3="1"/>
<feColorMatrix type="matrix" values="0 0 0 0 1 0 0 0 0 1 0 0 0 0 1 0 0 0 1 0"/>
<feBlend mode="normal" in2="shape" result="effect1_innerShadow_8462_309747"/>
</filter>
<linearGradient id="paint0_linear_8462_309747" x1="8.98423" y1="101.043" x2="8.98423" y2="268.635" gradientUnits="userSpaceOnUse">
<stop stop-color="#F6F6F6"/>
<stop offset="1" stop-color="#ABABAB"/>
</linearGradient>
<clipPath id="clip0_8462_309747">
<rect width="132" height="194" rx="8" fill="white"/>
</clipPath>
</defs>
</svg>
