<svg width="132" height="194" viewBox="0 0 132 194" fill="none" xmlns="http://www.w3.org/2000/svg">
<g clip-path="url(#clip0_8462_308239)">
<g filter="url(#filter0_i_8462_308239)">
<rect width="132" height="194" rx="8" fill="url(#paint0_linear_8462_308239)"/>
<rect width="132" height="194" rx="8" fill="white" fill-opacity="0.5"/>
</g>
<path fill-rule="evenodd" clip-rule="evenodd" d="M88 132H92V146H88V176.133C89.0185 179.002 91.2728 183.432 95.9752 186.132C96.6208 186.494 97 187.187 97 187.911C97 189.066 96.047 190 94.8685 190H88H84H82H78H71.1315C69.953 190 69 189.066 69 187.911C69 187.187 69.3792 186.494 70.0248 186.132C74.7272 183.432 76.9815 179.002 78 176.133V146H74V132H78H88Z" fill="#212121"/>
<path fill-rule="evenodd" clip-rule="evenodd" d="M86.4912 150.797C86.0265 152.386 85.7575 154.057 85.7575 155.789C85.7575 165.844 94.1096 174 104.406 174C112.562 174 119.484 168.877 122.015 161.748C122.015 161.748 122.211 161.222 122.223 161.187C124.338 154.105 121.465 147.179 121.465 147.179C117.564 137.745 107.854 128.323 99.2577 118.173C90.2331 107.533 82.9939 97 82.9939 97C82.9939 97 75.7546 107.533 66.7423 118.173C58.1456 128.323 48.4363 137.745 44.5354 147.179C44.5354 147.179 41.6617 154.117 43.7772 161.187C43.7894 161.222 43.9851 161.748 43.9851 161.748C46.5164 168.877 53.4255 174 61.5941 174C71.8904 174 80.2425 165.844 80.2425 155.789C80.2425 154.057 79.9735 152.386 79.5088 150.797" fill="#212121"/>
<path fill-rule="evenodd" clip-rule="evenodd" d="M32.9022 81.4043H26.0973V86.6171H27.6095V97.8367C27.2244 98.9052 26.3722 100.554 24.5944 101.56C24.3504 101.695 24.207 101.953 24.207 102.222C24.207 102.652 24.5673 103 25.0128 103H27.6095H29.1217H29.8778H31.39H33.9866C34.4321 103 34.7924 102.652 34.7924 102.222C34.7924 101.953 34.6491 101.695 34.405 101.56C32.6272 100.554 31.775 98.9052 31.39 97.8367V86.6171H32.9022V81.4043Z" fill="#212121"/>
<path fill-rule="evenodd" clip-rule="evenodd" d="M31.8197 88.4032C31.6441 88.9946 31.9999 88.6171 31.9999 89.2618C31.9999 93.0057 34.1073 97.0425 37.9999 97.0425C41.0834 97.0425 43.2925 95.135 44.2494 92.4805C44.2494 92.4805 44.3234 92.2849 44.328 92.2716C45.1278 89.6349 44.0414 87.056 44.0414 87.056C42.5667 83.5433 38.896 80.0351 35.6461 76.2557C32.2344 72.294 29.4976 68.3723 29.4976 68.3723C29.4976 68.3723 26.7608 72.294 23.3537 76.2557C20.1037 80.0351 16.4331 83.5433 14.9584 87.056C14.9584 87.056 13.872 89.6393 14.6718 92.2716C14.6764 92.2849 14.7503 92.4805 14.7503 92.4805C15.7073 95.135 17.9117 97.0425 20.9999 97.0425C24.8924 97.0425 26.9999 93.0057 26.9999 89.2618C26.9999 88.6171 27.3557 88.9946 27.18 88.4032" fill="#212121"/>
<rect x="26.5" y="88" width="6" height="12" fill="#212121"/>
<path fill-rule="evenodd" clip-rule="evenodd" d="M28.562 61C38.1873 61 43 55.7459 43 45.2375C43 37.9208 40.3828 33.8934 35.1483 33.1552C37.2681 32.8729 38.9336 31.8091 40.1448 29.9636C41.3778 28.1181 41.9942 25.6865 41.9942 22.6686C41.9942 14.2229 37.5276 10 28.5944 10C19.9208 10 15.584 14.2554 15.584 22.7663V24.59H24.3117V21.4962C24.3117 18.7171 25.7501 17.3276 28.6269 17.3276C31.5253 17.3276 32.9745 19.1513 32.9745 22.7989C32.9745 25.5996 32.3689 27.4559 31.1576 28.3678C29.9463 29.258 27.6752 29.7031 24.3441 29.7031V37.0307C28.9297 37.0307 31.6334 37.6929 32.4554 39.0172C33.2773 40.3199 33.6883 42.3282 33.6883 45.0421C33.6883 47.7561 33.4287 49.8729 32.9096 51.3927C32.3905 52.9125 31.0819 53.6724 28.9838 53.6724C26.8208 53.6724 25.404 52.9451 24.7335 51.4904C24.063 50.0358 23.7277 47.3001 23.7277 43.2835H15V46.4751C15 56.1584 19.5207 61 28.562 61Z" fill="#212121"/>
</g>
<defs>
<filter id="filter0_i_8462_308239" x="0" y="0" width="132" height="194" filterUnits="userSpaceOnUse" color-interpolation-filters="sRGB">
<feFlood flood-opacity="0" result="BackgroundImageFix"/>
<feBlend mode="normal" in="SourceGraphic" in2="BackgroundImageFix" result="shape"/>
<feColorMatrix in="SourceAlpha" type="matrix" values="0 0 0 0 0 0 0 0 0 0 0 0 0 0 0 0 0 0 127 0" result="hardAlpha"/>
<feMorphology radius="2" operator="erode" in="SourceAlpha" result="effect1_innerShadow_8462_308239"/>
<feOffset/>
<feGaussianBlur stdDeviation="0.5"/>
<feComposite in2="hardAlpha" operator="arithmetic" k2="-1" k3="1"/>
<feColorMatrix type="matrix" values="0 0 0 0 1 0 0 0 0 1 0 0 0 0 1 0 0 0 1 0"/>
<feBlend mode="normal" in2="shape" result="effect1_innerShadow_8462_308239"/>
</filter>
<linearGradient id="paint0_linear_8462_308239" x1="8.98423" y1="101.043" x2="8.98423" y2="268.635" gradientUnits="userSpaceOnUse">
<stop stop-color="#F6F6F6"/>
<stop offset="1" stop-color="#ABABAB"/>
</linearGradient>
<clipPath id="clip0_8462_308239">
<rect width="132" height="194" rx="8" fill="white"/>
</clipPath>
</defs>
</svg>
