<svg width="132" height="194" viewBox="0 0 132 194" fill="none" xmlns="http://www.w3.org/2000/svg">
<g clip-path="url(#clip0_8462_309181)">
<g filter="url(#filter0_i_8462_309181)">
<rect width="132" height="194" rx="8" fill="url(#paint0_linear_8462_309181)"/>
<rect width="132" height="194" rx="8" fill="white" fill-opacity="0.5"/>
</g>
<path fill-rule="evenodd" clip-rule="evenodd" d="M31.8479 81.4043H34.4349V88.4788H31.8479V97.8366C32.2243 98.9052 33.0574 100.554 34.7953 101.56C35.0339 101.695 35.174 101.953 35.174 102.222C35.174 102.652 34.8218 103 34.3863 103H30.3696V103H29.6305V103H25.6139C25.1784 103 24.8262 102.652 24.8262 102.222C24.8262 101.953 24.9663 101.695 25.2049 101.56C26.9427 100.554 27.7758 98.9052 28.1523 97.8367V88.4788H25.5653V81.4043H28.1523H31.8479Z" fill="#212121"/>
<path fill-rule="evenodd" clip-rule="evenodd" d="M38.0371 76.5638C38.0371 80.8822 34.4388 84.3829 30.0001 84.3829C25.5614 84.3829 21.9631 80.8822 21.9631 76.5638C21.9631 72.2454 25.5614 68.7446 30.0001 68.7446C34.4388 68.7446 38.0371 72.2454 38.0371 76.5638ZM21.2155 97.4148C25.3445 97.4148 28.6918 93.9974 28.6918 89.7819C28.6918 85.5663 25.3445 82.1489 21.2155 82.1489C17.0865 82.1489 13.7393 85.5663 13.7393 89.7819C13.7393 93.9974 17.0865 97.4148 21.2155 97.4148ZM38.7847 97.4148C42.9138 97.4148 46.261 93.9974 46.261 89.7819C46.261 85.5663 42.9138 82.1489 38.7847 82.1489C34.6557 82.1489 31.3085 85.5663 31.3085 89.7819C31.3085 93.9974 34.6557 97.4148 38.7847 97.4148Z" fill="#212121"/>
<path d="M27 92H33V101H27V92Z" fill="#212121"/>
<g clip-path="url(#clip1_8462_309181)">
<path d="M66.7021 168V144C67.2021 143.5 69.7021 141.8 75.7021 139C81.7021 136.2 83.5355 129.5 83.7021 126.5L112.202 129C113.002 146.6 103.535 155 98.7021 157L90.7021 153.5L82.7021 166L66.7021 168Z" fill="#CE1E3C"/>
<path d="M134.202 138.5C123.402 137.7 122.035 128.5 122.702 124L111.202 125C113.202 145.4 104.369 153.833 99.2021 156V162.5H103.702V167C119.702 169.8 130.702 159.167 134.202 153.5V138.5Z" fill="#B10024"/>
<path d="M84.7021 163C71.5021 160.6 67.5355 149.333 67.2021 144C60.8021 148.4 54.8688 156.5 52.7021 160L70.7021 184L62.2021 198H115.202L132.202 194.5C137.535 175.167 145.402 139.9 134.202 153.5C123.002 167.1 109.869 168.167 104.702 167C103.535 166.667 97.9021 165.4 84.7021 163Z" fill="black"/>
<path d="M79.7021 183.5C77.3021 183.5 75.7021 181.833 75.2021 181L73.2021 182.5L72.2021 187.5L75.2021 190.5L77.7021 188.5H96.2021V183.5H79.7021Z" fill="#FFE92F"/>
<path d="M96.2021 184L113.702 183L116.702 181.5L118.202 188L115.702 189.5L96.2021 188V184Z" fill="#E9AE08"/>
<path d="M55.7021 196.5L66.7021 179L70.7021 185L63.7021 196.5H55.7021Z" fill="#B10024"/>
<path d="M68 181L53 161C50.6 163.8 48 174.167 47 179L45.5 194H59.5L68 181Z" fill="#CE1E3C"/>
<path d="M83.7021 128.5V118.5L88.7021 116.5L123.202 117.5L122.202 127.5C118.602 133.9 114.369 130.833 112.702 128.5C108.702 132.9 104.369 130.333 102.702 128.5C98.3021 133.3 94.5355 130.5 93.2021 128.5C88.8021 132.5 85.0355 130.167 83.7021 128.5Z" fill="white"/>
<path d="M101.202 144H89.7021L91.7021 148.5H98.7021L101.202 144Z" fill="#E9AE08"/>
<path d="M89.7021 141.5L93.2021 139H97.2021L101.202 141.5V144H89.7021V141.5Z" fill="#FFE92F"/>
<path d="M90.7021 159.5V153L77.2021 173.5L83.2021 183.5H96.7021V162.5H93.2021L90.7021 159.5Z" fill="#F4DBC3"/>
<path d="M103.202 176.5V162.5H96.2021V183H100.702L103.202 176.5Z" fill="#D0B498"/>
<path d="M77.7021 174L72.2021 181.5L72.7021 183L75.7021 181.5L78.2021 183H82.2021L77.7021 174Z" fill="white"/>
<path d="M72.7021 183.5L71.2021 182.5L61.2021 199H74.7021L81.2021 189.5H76.7021L74.7021 191L72.7021 187V183.5Z" fill="white"/>
<path d="M76.2021 196L80.8688 189H101.276L101.202 196H76.2021Z" fill="#D7D7D7"/>
<path d="M91.2021 152H99.2021V161.5H91.2021V152Z" fill="white"/>
<rect x="92" y="149" width="8" height="3" fill="#D9D9D9"/>
<path d="M91.7021 149H99.2021" stroke="#900600" stroke-width="2" stroke-linecap="round" stroke-linejoin="round"/>
<path d="M98.2021 96L75.2021 79.5L76.7021 77H104.202V86L101.702 91.5L98.2021 96Z" fill="#D0B498"/>
<path d="M98.2021 95C94.2021 82.2 80.2021 78 73.7021 77.5L65.2021 99L71.7021 101L72.7021 105L81.7021 106.5L85.2021 111.5L88.2021 112.5L90.2021 111C90.6021 107 95.7021 98.6667 98.2021 95Z" fill="#FFE8D1"/>
<path d="M86.994 88.3102L78.9612 88.9992C78.8449 91.997 80.7852 93.5734 83.8024 93.1901C86.8195 92.8068 87.4355 89.8284 86.994 88.3102Z" fill="white"/>
<path d="M72.2021 122.5V104.5L81.7021 106.5C81.7021 109.7 84.3688 111.167 85.7021 111.5L88.7021 112V116.5L72.2021 122.5Z" fill="#B09C00"/>
<path d="M99.2021 91.5C102.802 87.5 102.702 79.8333 102.202 76.5L133.702 77.5L135.202 121H125.702L121.702 117.5L116.702 122H110.702L105.702 118.5L99.2021 122C97.5355 121.667 93.7021 120.7 91.7021 119.5C89.7021 118.3 88.8688 114.667 88.7021 113L90.7021 104.5C92.0355 101.833 95.6021 95.5 99.2021 91.5Z" fill="#FFE92F"/>
<path d="M129.702 109.5C123.702 86.7 109.535 78.6667 103.202 77H138.702V104L129.702 109.5Z" fill="#B09C00"/>
<path d="M132.202 61.5001C101.402 45.9001 77.0355 57.3334 68.7021 65.0001L73.7021 71.5H132.202H138.202L132.202 61.5001Z" fill="black"/>
<path d="M101.202 53.5001C88.0021 53.1001 74.0355 60.6668 68.7021 64.5001L64.7021 59C79.1021 44.6 102.035 44 111.702 45.5L101.202 53.5001Z" fill="#FFE92F"/>
<rect x="74.2021" y="72" width="60" height="5" fill="#CE1E3C"/>
<path d="M108.202 44.5L114.702 45.5C123.502 45.5 130.369 50.8333 132.702 53.5V61.5C119.502 54.7 105.202 53.3333 99.7021 53.5L108.202 44.5Z" fill="#B09C00"/>
<path d="M134.202 55.5C132.202 52 123.002 45 102.202 45C81.4021 45 68.2021 54.6667 64.2021 59.5L73.7021 71.5V77.5L65.2021 99L71.7021 100.5V122.5L89.2021 116.5" stroke="#212121" stroke-width="2.8" stroke-linejoin="round"/>
<path d="M68.7021 65C78.0355 57 104.502 45.4 135.702 63" stroke="#212121" stroke-width="2.8" stroke-linecap="round" stroke-linejoin="round"/>
<path d="M71.7021 111.5H77.7021" stroke="#212121" stroke-width="2.8" stroke-linecap="round" stroke-linejoin="round"/>
<path d="M71.7021 104.5L82.2021 106.5C82.2021 108.667 83.6021 112.7 89.2021 111.5" stroke="#212121" stroke-width="2.8" stroke-linecap="round" stroke-linejoin="round"/>
<path d="M83.7021 119V127.5C83.3688 130.333 80.7021 136.9 72.7021 140.5C64.7021 144.1 57.0355 153.333 54.2021 157.5C51.0355 162.5 44.9021 177.4 45.7021 197" stroke="#212121" stroke-width="2.8" stroke-linecap="round" stroke-linejoin="round"/>
<path d="M53.2021 160L70.2021 183.5" stroke="#212121" stroke-width="2.8" stroke-linecap="round" stroke-linejoin="round"/>
<path d="M66.7021 144.5C67.5355 149.333 72.1021 159.9 83.7021 163.5" stroke="#212121" stroke-width="2.8" stroke-linecap="round" stroke-linejoin="round"/>
<path d="M91.2021 152L63.2021 196.5" stroke="#212121" stroke-width="2.8" stroke-linecap="round" stroke-linejoin="round"/>
<path d="M122.702 118.5V126.5C122.702 130.333 124.702 138.1 132.702 138.5" stroke="#212121" stroke-width="2.8" stroke-linecap="round" stroke-linejoin="round"/>
<path d="M104 167C109.667 168.333 122.802 167.5 133.202 153.5" stroke="#212121" stroke-width="2.8" stroke-linecap="round" stroke-linejoin="round"/>
<path d="M77.5 174L82.7479 183" stroke="#212121" stroke-width="2.8" stroke-linecap="round" stroke-linejoin="round"/>
<path d="M75.248 180C75.248 181 76.948 183 79.748 183C82.548 183 95.9147 183 101.248 183L103.748 176V162H99.248M99.248 162H94.748C93.5814 162.167 91.248 161.5 91.248 157.5V148C91.248 146.833 90.848 144.4 89.248 144C89.248 141.833 90.248 138 95.248 138C100.748 138 101.248 141.5 101.748 144C100.915 144 99.248 144.8 99.248 148C99.248 151.2 99.248 158.667 99.248 162Z" stroke="#212121" stroke-width="2.8" stroke-linecap="round" stroke-linejoin="round"/>
<path d="M100.748 188.5H78.7476C77.7477 188.5 75.6476 188.5 75.2476 190.5C72.2477 188.5 70.2477 184 75.2476 180" stroke="#212121" stroke-width="2.8" stroke-linecap="round" stroke-linejoin="round"/>
<path d="M100.702 188.5H112.702C113.369 188.5 114.802 188.8 115.202 190C118.202 188.5 120.402 184.1 115.202 180.5C114.869 181.667 113.802 183 112.202 183C110.602 183 104.535 183 101.702 183" stroke="#212121" stroke-width="2.8" stroke-linecap="round" stroke-linejoin="round"/>
<path d="M91.748 148.5H99.248" stroke="#212121" stroke-width="2.8" stroke-linecap="round" stroke-linejoin="round"/>
<path d="M96.248 189.5V195.5" stroke="#212121" stroke-width="2.8" stroke-linecap="round" stroke-linejoin="round"/>
<path d="M86.748 189.5L89.248 195.5V189.5" stroke="#212121" stroke-width="2.8" stroke-linecap="round" stroke-linejoin="round"/>
<path d="M89.248 189.5H86.748" stroke="#212121" stroke-width="2.8" stroke-linecap="round" stroke-linejoin="round"/>
<path d="M73.7021 71.5H134.202" stroke="#212121" stroke-width="2.8"/>
<path d="M73.7021 77H134.202" stroke="#212121" stroke-width="2.8"/>
<path d="M76.2021 84.5L91.7021 82.5" stroke="#212121" stroke-width="2.8" stroke-linecap="round" stroke-linejoin="round"/>
<path d="M86.994 88.3102L78.9612 88.9992C78.8449 91.997 80.7852 93.5734 83.8024 93.1901C86.8195 92.8068 87.4355 89.8284 86.994 88.3102Z" stroke="#212121" stroke-width="2.8" stroke-linecap="round" stroke-linejoin="round"/>
<path d="M102.314 78V82.7732C102.314 86.5917 100.405 90.8876 96.109 96.1381C90.3502 103.177 87.2539 114.402 90.7026 119C93.7026 123 100.636 122.69 103.703 120.5C106.376 118.591 106.928 115.072 107.087 113.799C107.246 112.367 106.705 109.312 103.269 108.548C98.9729 107.594 96.109 109.503 96.109 111.89C96.109 114.276 98.1774 115.072 99.4502 114.754" stroke="#212121" stroke-width="2.8" stroke-linecap="round" stroke-linejoin="round"/>
<path d="M136.314 78V82.7732C136.314 86.5917 134.405 90.8876 130.109 96.1381C126.635 100.384 123.318 105.716 122.279 110.458M131.541 114.754C130.268 115.072 128.2 114.276 128.2 111.89C128.2 109.503 131.064 107.594 135.359 108.548C138.796 109.312 139.337 112.367 139.178 113.799C138.966 115.708 138.032 117.14 135.359 119.049C132.018 121.436 127.188 122.391 123.793 118.572C123.212 117.918 122.781 117.196 122.482 116.418" stroke="#212121" stroke-width="2.8" stroke-linecap="round" stroke-linejoin="round"/>
<path d="M118.171 78V82.7732C118.171 86.5917 116.376 91.3599 111.965 96.1381C108.827 99.5382 106.262 104.515 105.212 109.026M106.238 118.095C110.056 122.391 115.784 122.391 119.125 120.004C121.798 118.095 122.785 115.072 122.944 113.799C123.103 112.367 122.562 109.312 119.125 108.548C114.829 107.594 111.965 109.503 111.965 111.89C111.965 114.276 114.034 115.072 115.307 114.754" stroke="#212121" stroke-width="2.8" stroke-linecap="round" stroke-linejoin="round"/>
<path d="M110.533 78V82.7732C110.533 86.5917 108.738 91.3599 104.328 96.1381C101.189 99.5382 98.624 104.515 97.5742 109.026" stroke="#212121" stroke-width="2.8" stroke-linecap="round" stroke-linejoin="round"/>
<path d="M127.206 78V82.7732C127.206 86.5917 125.411 91.3599 121.001 96.1381C117.862 99.5382 115.297 104.037 114.247 108.548" stroke="#212121" stroke-width="2.8" stroke-linecap="round" stroke-linejoin="round"/>
<path d="M122.661 125.255C122.661 128.418 120.672 130.982 117.508 130.982C115.516 130.982 113.761 129.965 112.735 128.422C111.709 129.965 109.954 130.982 107.962 130.982C105.97 130.982 104.215 129.965 103.189 128.422C102.163 129.965 100.408 130.982 98.4157 130.982C96.4234 130.982 94.6687 129.965 93.6425 128.422C92.6164 129.965 90.8616 130.982 88.8693 130.982C86.5 131 85 129.5 84 128.5" stroke="#212121" stroke-width="2.8" stroke-linecap="round" stroke-linejoin="round"/>
</g>
<path fill-rule="evenodd" clip-rule="evenodd" d="M28.4837 61.614C32.7427 61.614 35.8935 60.6594 37.9361 58.7502C39.9787 56.841 41 53.7687 41 49.5334V10H31.6454V49.3359C31.6454 52.4301 30.5698 53.9772 28.4185 53.9772C26.3759 53.9772 25.3546 52.7812 25.3546 50.3892V44.2338H16V48.9738C16 53.7797 17.1843 57.0934 19.5528 58.9148C21.9213 60.7142 24.8983 61.614 28.4837 61.614Z" fill="#212121"/>
</g>
<defs>
<filter id="filter0_i_8462_309181" x="0" y="0" width="132" height="194" filterUnits="userSpaceOnUse" color-interpolation-filters="sRGB">
<feFlood flood-opacity="0" result="BackgroundImageFix"/>
<feBlend mode="normal" in="SourceGraphic" in2="BackgroundImageFix" result="shape"/>
<feColorMatrix in="SourceAlpha" type="matrix" values="0 0 0 0 0 0 0 0 0 0 0 0 0 0 0 0 0 0 127 0" result="hardAlpha"/>
<feMorphology radius="2" operator="erode" in="SourceAlpha" result="effect1_innerShadow_8462_309181"/>
<feOffset/>
<feGaussianBlur stdDeviation="0.5"/>
<feComposite in2="hardAlpha" operator="arithmetic" k2="-1" k3="1"/>
<feColorMatrix type="matrix" values="0 0 0 0 1 0 0 0 0 1 0 0 0 0 1 0 0 0 1 0"/>
<feBlend mode="normal" in2="shape" result="effect1_innerShadow_8462_309181"/>
</filter>
<linearGradient id="paint0_linear_8462_309181" x1="8.98423" y1="101.043" x2="8.98423" y2="268.635" gradientUnits="userSpaceOnUse">
<stop stop-color="#F6F6F6"/>
<stop offset="1" stop-color="#ABABAB"/>
</linearGradient>
<clipPath id="clip0_8462_309181">
<rect width="132" height="194" rx="8" fill="white"/>
</clipPath>
<clipPath id="clip1_8462_309181">
<rect x="33" y="40" width="99.2025" height="154" rx="8" fill="white"/>
</clipPath>
</defs>
</svg>
