<svg width="132" height="194" viewBox="0 0 132 194" fill="none" xmlns="http://www.w3.org/2000/svg">
<g clip-path="url(#clip0_8462_309753)">
<g filter="url(#filter0_i_8462_309753)">
<rect width="132" height="194" rx="8" fill="url(#paint0_linear_8462_309753)"/>
<rect width="132" height="194" rx="8" fill="white" fill-opacity="0.5"/>
</g>
<path d="M44.1466 139.682C43.4915 140.437 43.4914 141.563 44.1463 142.318C61.8543 162.72 76.6607 181.743 81.4056 187.915C82.2137 188.966 83.7864 188.966 84.5945 187.915C89.3407 181.742 104.153 162.713 121.854 142.318C122.509 141.563 122.509 140.437 121.854 139.682C104.153 119.287 89.3414 100.259 84.5949 94.0856C83.7866 93.0343 82.2136 93.0346 81.4056 94.0859C76.6608 100.26 61.8545 119.288 44.1466 139.682Z" fill="#CD1F3C"/>
<path d="M44.9681 85.9611C39.3148 80.251 34.3752 73.7562 29.5219 66.6289L29.502 66.6042C24.6407 73.748 19.6852 80.2592 14.0159 85.9816L14 86.0021L14.004 86.0062C19.6812 91.7328 24.6407 98.248 29.502 105.396L29.514 105.384C34.3712 98.248 39.3188 91.7451 44.9801 86.0268L45 86.0021L44.9681 85.9611Z" fill="#CD1F3C"/>
<path d="M41.336 44.1611V33.4748V23.9392C41.1136 18.922 39.9552 13.8052 34.6082 11.1509C32.0459 9.86208 22.541 8.38149 17.8231 14.4956C15.6597 17.3034 15 22.1287 15 28.6801C15 34.0194 16.1124 37.9625 17.9075 40.5018C19.7179 43.0257 22.2112 44.2838 26.2387 44.2838C29.2919 44.2838 31.5626 43.1715 33.0586 40.9698C33.0586 40.9698 33.304 48.0582 32.9205 50.5207C32.4909 52.2544 31.555 53.083 30.8492 53.4589C29.0004 54.5712 26.1619 53.9498 25.1723 52.638C24.643 51.9399 24.0753 50.8736 24.0063 49.347H15.9896C15.9896 49.347 16.1124 55.3077 19.1963 58.1308C21.1832 59.9566 23.4002 60.9999 28.3023 60.9999C32.8054 60.9999 35.92 59.4349 38.0757 56.9033C41.1366 53.3898 41.336 48.0505 41.336 44.1611ZM32.9588 32.6462C32.8668 34.4107 31.7544 36.0217 30.2125 36.7428C29.6678 36.9959 29.0694 37.1417 28.4404 37.1417C27.6272 37.1417 24.6123 36.8502 23.9142 32.6846C23.638 31.0276 23.5997 28.3579 23.5997 26.4707C23.5997 24.5836 23.8605 21.9062 23.9756 21.2081C24.3438 19.0218 26.1926 17.173 28.4404 17.173C32.115 17.173 32.8898 20.464 32.9512 21.6838V32.6462H32.9588Z" fill="#CD1F3C"/>
</g>
<defs>
<filter id="filter0_i_8462_309753" x="0" y="0" width="132" height="194" filterUnits="userSpaceOnUse" color-interpolation-filters="sRGB">
<feFlood flood-opacity="0" result="BackgroundImageFix"/>
<feBlend mode="normal" in="SourceGraphic" in2="BackgroundImageFix" result="shape"/>
<feColorMatrix in="SourceAlpha" type="matrix" values="0 0 0 0 0 0 0 0 0 0 0 0 0 0 0 0 0 0 127 0" result="hardAlpha"/>
<feMorphology radius="2" operator="erode" in="SourceAlpha" result="effect1_innerShadow_8462_309753"/>
<feOffset/>
<feGaussianBlur stdDeviation="0.5"/>
<feComposite in2="hardAlpha" operator="arithmetic" k2="-1" k3="1"/>
<feColorMatrix type="matrix" values="0 0 0 0 1 0 0 0 0 1 0 0 0 0 1 0 0 0 1 0"/>
<feBlend mode="normal" in2="shape" result="effect1_innerShadow_8462_309753"/>
</filter>
<linearGradient id="paint0_linear_8462_309753" x1="8.98423" y1="101.043" x2="8.98423" y2="268.635" gradientUnits="userSpaceOnUse">
<stop stop-color="#F6F6F6"/>
<stop offset="1" stop-color="#ABABAB"/>
</linearGradient>
<clipPath id="clip0_8462_309753">
<rect width="132" height="194" rx="8" fill="white"/>
</clipPath>
</defs>
</svg>
