<svg width="132" height="194" viewBox="0 0 132 194" fill="none" xmlns="http://www.w3.org/2000/svg">
<g clip-path="url(#clip0_8462_308822)">
<g filter="url(#filter0_i_8462_308822)">
<rect width="132" height="194" rx="8" fill="url(#paint0_linear_8462_308822)"/>
<rect width="132" height="194" rx="8" fill="white" fill-opacity="0.5"/>
</g>
<path d="M29.9137 76.2009C29.9302 76.2877 30.0358 76.2877 30.0523 76.2009C30.8213 72.0534 33.5143 68.9265 37.3129 68.7672C37.412 68.7636 37.511 68.76 37.61 68.76C41.831 68.76 44.5934 72.513 44.5934 77.1418C44.5934 77.4024 44.5802 77.663 44.5571 77.9199L44.5604 77.9163C44.5604 77.9163 44.5472 78.1262 44.4944 78.4845C44.4878 78.5207 44.4845 78.5569 44.4779 78.5931C44.326 79.5558 43.9003 81.4449 42.7452 83.5983C42.6957 83.6888 42.6495 83.772 42.6 83.848C39.8805 88.7902 34.0509 93.044 30.3167 100.11C30.1764 100.375 29.7897 100.375 29.6493 100.11C25.9152 93.044 20.0856 88.7902 17.3693 83.848C17.3198 83.7684 17.2736 83.6888 17.2241 83.5983C16.069 81.4449 15.6433 79.5558 15.4915 78.5931C15.4849 78.5569 15.4816 78.5207 15.475 78.4845C15.4222 78.1226 15.409 77.9163 15.409 77.9163L15.4123 77.9199C15.3892 77.6594 15.376 77.4024 15.376 77.1418C15.376 72.513 18.1383 68.76 22.3594 68.76C22.4584 68.76 22.5574 68.7636 22.6531 68.7672C26.4517 68.9265 29.1448 72.0534 29.9137 76.2009Z" fill="#CD1F3C"/>
<path d="M78.796 122.462C78.8434 122.701 79.1471 122.701 79.1945 122.462C81.4053 111.057 89.1477 102.458 100.069 102.02C100.353 102.01 100.638 102 100.923 102C113.058 102 121 112.321 121 125.05C121 125.767 120.962 126.483 120.896 127.19L120.905 127.18C120.905 127.18 120.867 127.757 120.715 128.742C120.696 128.842 120.687 128.941 120.668 129.041C120.231 131.688 119.007 136.884 115.687 142.805C115.544 143.054 115.411 143.283 115.269 143.492C107.438 157.105 90.6368 168.818 79.9033 188.304C79.5128 189.013 78.4777 189.013 78.0873 188.304C67.3537 168.818 50.5527 157.105 42.7309 143.492C42.5886 143.273 42.4558 143.054 42.3135 142.805C38.9925 136.884 37.7686 131.688 37.3321 129.041C37.3131 128.941 37.3036 128.842 37.2846 128.742C37.1328 127.747 37.0949 127.18 37.0949 127.18L37.1044 127.19C37.038 126.473 37 125.767 37 125.05C37 112.321 44.9417 102 57.0773 102C57.3619 102 57.6466 102.01 57.9217 102.02C68.8428 102.458 76.5852 111.057 78.796 122.462Z" fill="#CD1F3C"/>
<path fill-rule="evenodd" clip-rule="evenodd" d="M27.891 61C33.2227 61 36.8559 59.4693 38.7908 56.408C40.7472 53.3467 41.7254 48.6462 41.7254 42.3065C41.7254 36.9438 40.8117 32.9815 38.9843 30.4195C37.1569 27.8576 34.2223 26.5766 30.1806 26.5766C26.9773 26.5766 24.634 27.7599 23.1506 30.1264V25.3391C23.1506 19.9981 25.0317 17.3276 28.7939 17.3276C29.7184 17.3276 30.4923 17.6315 31.1158 18.2395C31.7393 18.8474 32.1047 19.9221 32.2122 21.4636H40.7257V20.2586C40.7257 17.5447 39.7797 15.1564 37.8879 13.0939C35.996 11.0313 32.8464 10 28.4392 10C23.0001 10 19.2378 11.5524 17.1524 14.6571C15.0886 17.7401 14.0566 22.8748 14.0566 30.0613V42.4693C14.0566 48.4617 15.0563 53.0536 17.0557 56.2452C19.0551 59.4151 22.6668 61 27.891 61ZM27.7623 53.6724C26.1069 53.6724 24.946 53.0645 24.2796 51.8486C23.6131 50.6111 23.2799 48.516 23.2799 45.5632V41.2318C23.2799 36.3467 24.8278 33.9042 27.9236 33.9042C30.9549 33.9042 32.4705 35.9342 32.4705 39.9942V46.9636C32.4705 49.5255 32.0836 51.2842 31.3096 52.2395C30.5572 53.1948 29.3747 53.6724 27.7623 53.6724Z" fill="#CD1F3C"/>
</g>
<defs>
<filter id="filter0_i_8462_308822" x="0" y="0" width="132" height="194" filterUnits="userSpaceOnUse" color-interpolation-filters="sRGB">
<feFlood flood-opacity="0" result="BackgroundImageFix"/>
<feBlend mode="normal" in="SourceGraphic" in2="BackgroundImageFix" result="shape"/>
<feColorMatrix in="SourceAlpha" type="matrix" values="0 0 0 0 0 0 0 0 0 0 0 0 0 0 0 0 0 0 127 0" result="hardAlpha"/>
<feMorphology radius="2" operator="erode" in="SourceAlpha" result="effect1_innerShadow_8462_308822"/>
<feOffset/>
<feGaussianBlur stdDeviation="0.5"/>
<feComposite in2="hardAlpha" operator="arithmetic" k2="-1" k3="1"/>
<feColorMatrix type="matrix" values="0 0 0 0 1 0 0 0 0 1 0 0 0 0 1 0 0 0 1 0"/>
<feBlend mode="normal" in2="shape" result="effect1_innerShadow_8462_308822"/>
</filter>
<linearGradient id="paint0_linear_8462_308822" x1="8.98423" y1="101.043" x2="8.98423" y2="268.635" gradientUnits="userSpaceOnUse">
<stop stop-color="#F6F6F6"/>
<stop offset="1" stop-color="#ABABAB"/>
</linearGradient>
<clipPath id="clip0_8462_308822">
<rect width="132" height="194" rx="8" fill="white"/>
</clipPath>
</defs>
</svg>
