<svg width="132" height="194" viewBox="0 0 132 194" fill="none" xmlns="http://www.w3.org/2000/svg">
<g clip-path="url(#clip0_8462_309752)">
<g filter="url(#filter0_i_8462_309752)">
<rect width="132" height="194" rx="8" fill="url(#paint0_linear_8462_309752)"/>
<rect width="132" height="194" rx="8" fill="white" fill-opacity="0.5"/>
</g>
<path d="M44.1466 139.682C43.4915 140.437 43.4914 141.563 44.1463 142.318C61.8543 162.72 76.6607 181.743 81.4056 187.915C82.2137 188.966 83.7864 188.966 84.5945 187.915C89.3407 181.742 104.153 162.713 121.854 142.318C122.509 141.563 122.509 140.437 121.854 139.682C104.153 119.287 89.3414 100.259 84.5949 94.0856C83.7866 93.0343 82.2136 93.0346 81.4056 94.0859C76.6608 100.26 61.8545 119.288 44.1466 139.682Z" fill="#CD1F3C"/>
<path d="M44.9681 85.9611C39.3148 80.251 34.3752 73.7562 29.5219 66.6289L29.502 66.6042C24.6407 73.748 19.6852 80.2592 14.0159 85.9816L14 86.0021L14.004 86.0062C19.6812 91.7328 24.6407 98.248 29.502 105.396L29.514 105.384C34.3712 98.248 39.3188 91.7451 44.9801 86.0268L45 86.0021L44.9681 85.9611Z" fill="#CD1F3C"/>
<path fill-rule="evenodd" clip-rule="evenodd" d="M29.1246 61C38.2615 61 42.83 55.9195 42.83 45.7586C42.83 41.1341 42.1635 38.0294 40.8306 36.4444C39.5192 34.8595 37.724 33.7631 35.4452 33.1552C37.6595 32.3301 39.2719 31.1903 40.2824 29.7356C41.2928 28.281 41.798 25.8602 41.798 22.4732C41.798 14.1577 37.5413 10 29.0279 10C24.9216 10 21.7291 11.0747 19.4502 13.2241C17.1714 15.3736 16.0319 18.1201 16.0319 21.4636C16.0319 24.8072 16.5157 27.3365 17.4831 29.0517C18.472 30.7452 19.9662 32.0479 21.9656 32.9598C19.6007 33.9802 17.8486 35.4023 16.7091 37.2261C15.5697 39.0498 15 41.97 15 45.9866C15 51.2407 16.1287 55.0619 18.386 57.4502C20.6434 59.8167 24.2229 61 29.1246 61ZM28.9636 29.8985C26.0183 29.8985 24.5457 27.7708 24.5457 23.5154C24.5457 19.3902 26.0398 17.3276 29.0281 17.3276C31.866 17.3276 33.2849 19.2057 33.2849 22.9617C33.2849 27.5863 31.8445 29.8985 28.9636 29.8985ZM29.0276 53.6723C25.8458 53.6723 24.2549 51.6098 24.2549 47.4846V43.6417C24.2549 38.9086 25.8458 36.5421 29.0276 36.5421C32.0589 36.5421 33.5746 38.6915 33.5746 42.9904V46.8333C33.5746 51.3927 32.0589 53.6723 29.0276 53.6723Z" fill="#CD1F3C"/>
</g>
<defs>
<filter id="filter0_i_8462_309752" x="0" y="0" width="132" height="194" filterUnits="userSpaceOnUse" color-interpolation-filters="sRGB">
<feFlood flood-opacity="0" result="BackgroundImageFix"/>
<feBlend mode="normal" in="SourceGraphic" in2="BackgroundImageFix" result="shape"/>
<feColorMatrix in="SourceAlpha" type="matrix" values="0 0 0 0 0 0 0 0 0 0 0 0 0 0 0 0 0 0 127 0" result="hardAlpha"/>
<feMorphology radius="2" operator="erode" in="SourceAlpha" result="effect1_innerShadow_8462_309752"/>
<feOffset/>
<feGaussianBlur stdDeviation="0.5"/>
<feComposite in2="hardAlpha" operator="arithmetic" k2="-1" k3="1"/>
<feColorMatrix type="matrix" values="0 0 0 0 1 0 0 0 0 1 0 0 0 0 1 0 0 0 1 0"/>
<feBlend mode="normal" in2="shape" result="effect1_innerShadow_8462_309752"/>
</filter>
<linearGradient id="paint0_linear_8462_309752" x1="8.98423" y1="101.043" x2="8.98423" y2="268.635" gradientUnits="userSpaceOnUse">
<stop stop-color="#F6F6F6"/>
<stop offset="1" stop-color="#ABABAB"/>
</linearGradient>
<clipPath id="clip0_8462_309752">
<rect width="132" height="194" rx="8" fill="white"/>
</clipPath>
</defs>
</svg>
