<svg width="132" height="194" viewBox="0 0 132 194" fill="none" xmlns="http://www.w3.org/2000/svg">
<g clip-path="url(#clip0_8462_309171)">
<g filter="url(#filter0_i_8462_309171)">
<rect width="132" height="194" rx="8" fill="url(#paint0_linear_8462_309171)"/>
<rect width="132" height="194" rx="8" fill="white" fill-opacity="0.5"/>
</g>
<path fill-rule="evenodd" clip-rule="evenodd" d="M83.0527 132H90.0527V151H83.0527V176.133C84.0713 179.002 86.3255 183.432 91.028 186.132C91.6736 186.494 92.0527 187.187 92.0527 187.911C92.0527 189.066 91.0997 190 89.9212 190H83.0527H79.0527H77.0527H73.0527H66.1842C65.0058 190 64.0527 189.066 64.0527 187.911C64.0527 187.187 64.4319 186.494 65.0775 186.132C69.7799 183.432 72.0342 179.002 73.0527 176.133V151H66.0527V132H73.0527H83.0527Z" fill="#212121"/>
<path fill-rule="evenodd" clip-rule="evenodd" d="M100.053 118.5C100.053 130.374 90.203 140 78.0527 140C65.9025 140 56.0527 130.374 56.0527 118.5C56.0527 106.626 65.9025 97 78.0527 97C90.203 97 100.053 106.626 100.053 118.5ZM54.2826 175C65.4553 175 74.5125 165.822 74.5125 154.5C74.5125 143.178 65.4553 134 54.2826 134C43.11 134 34.0527 143.178 34.0527 154.5C34.0527 165.822 43.11 175 54.2826 175ZM101.823 175C112.995 175 122.053 165.822 122.053 154.5C122.053 143.178 112.995 134 101.823 134C90.6502 134 81.593 143.178 81.593 154.5C81.593 165.822 90.6502 175 101.823 175Z" fill="#212121"/>
<path fill-rule="evenodd" clip-rule="evenodd" d="M31.8479 81.4043H34.4349V88.4788H31.8479V97.8366C32.2243 98.9052 33.0574 100.554 34.7953 101.56C35.0339 101.695 35.174 101.953 35.174 102.222C35.174 102.652 34.8218 103 34.3863 103H30.3696V103H29.6305V103H25.6139C25.1784 103 24.8262 102.652 24.8262 102.222C24.8262 101.953 24.9663 101.695 25.2049 101.56C26.9427 100.554 27.7758 98.9052 28.1523 97.8367V88.4788H25.5653V81.4043H28.1523H31.8479Z" fill="#212121"/>
<path fill-rule="evenodd" clip-rule="evenodd" d="M38.0371 76.5639C38.0371 80.8823 34.4388 84.3831 30.0001 84.3831C25.5614 84.3831 21.9631 80.8823 21.9631 76.5639C21.9631 72.2455 25.5614 68.7448 30.0001 68.7448C34.4388 68.7448 38.0371 72.2455 38.0371 76.5639ZM21.2155 97.415C25.3445 97.415 28.6918 93.9976 28.6918 89.782C28.6918 85.5664 25.3445 82.149 21.2155 82.149C17.0865 82.149 13.7393 85.5664 13.7393 89.782C13.7393 93.9976 17.0865 97.415 21.2155 97.415ZM38.7847 97.415C42.9138 97.415 46.261 93.9976 46.261 89.782C46.261 85.5664 42.9138 82.149 38.7847 82.149C34.6557 82.149 31.3085 85.5664 31.3085 89.782C31.3085 93.9976 34.6557 97.415 38.7847 97.415Z" fill="#212121"/>
<path d="M27 92H33V101H27V92Z" fill="#212121"/>
<path fill-rule="evenodd" clip-rule="evenodd" d="M21.4374 61L23.987 47.9844H35.0461L37.5626 61H47L35.3448 10H23.391L12 61H21.4374ZM33.487 39.956C33.5402 40.2464 33.3156 40.5137 33.0183 40.5137H26.0594C25.7584 40.5137 25.5328 40.2399 25.5925 39.9468L29.2566 21.9745C29.3607 21.4639 30.0982 21.4711 30.1922 21.9836L33.487 39.956Z" fill="#212121"/>
</g>
<defs>
<filter id="filter0_i_8462_309171" x="0" y="0" width="132" height="194" filterUnits="userSpaceOnUse" color-interpolation-filters="sRGB">
<feFlood flood-opacity="0" result="BackgroundImageFix"/>
<feBlend mode="normal" in="SourceGraphic" in2="BackgroundImageFix" result="shape"/>
<feColorMatrix in="SourceAlpha" type="matrix" values="0 0 0 0 0 0 0 0 0 0 0 0 0 0 0 0 0 0 127 0" result="hardAlpha"/>
<feMorphology radius="2" operator="erode" in="SourceAlpha" result="effect1_innerShadow_8462_309171"/>
<feOffset/>
<feGaussianBlur stdDeviation="0.5"/>
<feComposite in2="hardAlpha" operator="arithmetic" k2="-1" k3="1"/>
<feColorMatrix type="matrix" values="0 0 0 0 1 0 0 0 0 1 0 0 0 0 1 0 0 0 1 0"/>
<feBlend mode="normal" in2="shape" result="effect1_innerShadow_8462_309171"/>
</filter>
<linearGradient id="paint0_linear_8462_309171" x1="8.98423" y1="101.043" x2="8.98423" y2="268.635" gradientUnits="userSpaceOnUse">
<stop stop-color="#F6F6F6"/>
<stop offset="1" stop-color="#ABABAB"/>
</linearGradient>
<clipPath id="clip0_8462_309171">
<rect width="132" height="194" rx="8" fill="white"/>
</clipPath>
</defs>
</svg>
