<svg width="132" height="194" viewBox="0 0 132 194" fill="none" xmlns="http://www.w3.org/2000/svg">
<g clip-path="url(#clip0_8462_309745)">
<g filter="url(#filter0_i_8462_309745)">
<rect width="132" height="194" rx="8" fill="url(#paint0_linear_8462_309745)"/>
<rect width="132" height="194" rx="8" fill="white" fill-opacity="0.5"/>
</g>
<path d="M44.1466 139.682C43.4915 140.437 43.4914 141.563 44.1463 142.318C61.8543 162.72 76.6607 181.743 81.4056 187.915C82.2137 188.966 83.7864 188.966 84.5945 187.915C89.3407 181.742 104.153 162.713 121.854 142.318C122.509 141.563 122.509 140.437 121.854 139.682C104.153 119.287 89.3414 100.259 84.5949 94.0856C83.7866 93.0343 82.2136 93.0346 81.4056 94.0859C76.6608 100.26 61.8545 119.288 44.1466 139.682Z" fill="#CD1F3C"/>
<path d="M44.9681 85.9609C39.3148 80.2508 34.3752 73.7561 29.5219 66.6288L29.502 66.6041C24.6407 73.7479 19.6852 80.2591 14.0159 85.9815L14 86.002L14.004 86.0061C19.6812 91.7326 24.6407 98.2479 29.502 105.396L29.514 105.383C34.3712 98.2479 39.3188 91.745 44.9801 86.0267L45 86.002L44.9681 85.9609Z" fill="#CD1F3C"/>
<path fill-rule="evenodd" clip-rule="evenodd" d="M21.4374 61L23.987 47.9844H35.0461L37.5626 61H47L35.3448 10H23.391L12 61H21.4374ZM33.487 39.956C33.5402 40.2464 33.3156 40.5137 33.0183 40.5137H26.0594C25.7584 40.5137 25.5328 40.2399 25.5925 39.9468L29.2566 21.9745C29.3607 21.4639 30.0982 21.4711 30.1922 21.9836L33.487 39.956Z" fill="#CD1F3C"/>
</g>
<defs>
<filter id="filter0_i_8462_309745" x="0" y="0" width="132" height="194" filterUnits="userSpaceOnUse" color-interpolation-filters="sRGB">
<feFlood flood-opacity="0" result="BackgroundImageFix"/>
<feBlend mode="normal" in="SourceGraphic" in2="BackgroundImageFix" result="shape"/>
<feColorMatrix in="SourceAlpha" type="matrix" values="0 0 0 0 0 0 0 0 0 0 0 0 0 0 0 0 0 0 127 0" result="hardAlpha"/>
<feMorphology radius="2" operator="erode" in="SourceAlpha" result="effect1_innerShadow_8462_309745"/>
<feOffset/>
<feGaussianBlur stdDeviation="0.5"/>
<feComposite in2="hardAlpha" operator="arithmetic" k2="-1" k3="1"/>
<feColorMatrix type="matrix" values="0 0 0 0 1 0 0 0 0 1 0 0 0 0 1 0 0 0 1 0"/>
<feBlend mode="normal" in2="shape" result="effect1_innerShadow_8462_309745"/>
</filter>
<linearGradient id="paint0_linear_8462_309745" x1="8.98423" y1="101.043" x2="8.98423" y2="268.635" gradientUnits="userSpaceOnUse">
<stop stop-color="#F6F6F6"/>
<stop offset="1" stop-color="#ABABAB"/>
</linearGradient>
<clipPath id="clip0_8462_309745">
<rect width="132" height="194" rx="8" fill="white"/>
</clipPath>
</defs>
</svg>
