<svg width="132" height="194" viewBox="0 0 132 194" fill="none" xmlns="http://www.w3.org/2000/svg">
<g clip-path="url(#clip0_8462_309183)">
<g filter="url(#filter0_i_8462_309183)">
<rect width="132" height="194" rx="8" fill="url(#paint0_linear_8462_309183)"/>
<rect width="132" height="194" rx="8" fill="white" fill-opacity="0.5"/>
</g>
<path fill-rule="evenodd" clip-rule="evenodd" d="M31.8479 81.4043H34.4349V88.4788H31.8479V97.8366C32.2243 98.9052 33.0574 100.554 34.7953 101.56C35.0339 101.695 35.174 101.953 35.174 102.222C35.174 102.652 34.8218 103 34.3863 103H30.3696V103H29.6305V103H25.6139C25.1784 103 24.8262 102.652 24.8262 102.222C24.8262 101.953 24.9663 101.695 25.2049 101.56C26.9427 100.554 27.7758 98.9052 28.1523 97.8367V88.4788H25.5653V81.4043H28.1523H31.8479Z" fill="#212121"/>
<path fill-rule="evenodd" clip-rule="evenodd" d="M38.0371 76.5638C38.0371 80.8822 34.4388 84.3829 30.0001 84.3829C25.5614 84.3829 21.9631 80.8822 21.9631 76.5638C21.9631 72.2454 25.5614 68.7446 30.0001 68.7446C34.4388 68.7446 38.0371 72.2454 38.0371 76.5638ZM21.2155 97.4148C25.3445 97.4148 28.6918 93.9974 28.6918 89.7819C28.6918 85.5663 25.3445 82.1489 21.2155 82.1489C17.0865 82.1489 13.7393 85.5663 13.7393 89.7819C13.7393 93.9974 17.0865 97.4148 21.2155 97.4148ZM38.7847 97.4148C42.9138 97.4148 46.261 93.9974 46.261 89.7819C46.261 85.5663 42.9138 82.1489 38.7847 82.1489C34.6557 82.1489 31.3085 85.5663 31.3085 89.7819C31.3085 93.9974 34.6557 97.4148 38.7847 97.4148Z" fill="#212121"/>
<path d="M27 92H33V101H27V92Z" fill="#212121"/>
<g clip-path="url(#clip1_8462_309183)">
<path d="M94.5 91L71.5 74.5L73 72H100.5V81L98 86.5L94.5 91Z" fill="#D0B498"/>
<path d="M128.5 105.5C122.5 82.7 108.333 73.6667 102 72H137.5V104L128.5 105.5Z" fill="#D7D7D7"/>
<path d="M87 112C86.9201 112.274 86.8314 112.569 86.7347 112.88C86.7863 113.982 88.0093 115.704 92.5 117.5C98.5 119.9 102.667 116.5 104 114.5L107 116.5C105 120.1 100.5 121.333 98.5 121.5C96.1 124.3 91.8333 124.667 90 124.5C85.6 126.9 81.5 126.5 80 126C82.6082 124.51 85.4189 117.119 86.7347 112.88C86.7173 112.51 86.8323 112.21 87 112Z" fill="#D7D7D7"/>
<path d="M61.5 123C69.1 118.6 69.3333 105.833 68.5 100L80 102.5C80.4 107.7 84.5 108 86.5 107.5C86.5 104.667 87.8 97.8 93 93C98.2 88.2 99.8333 82.3333 100 80V72.5H104C126 82.9 129.833 107.167 129 118C126.6 118 122.333 115.333 120.5 114C120 114.833 117.7 116.8 112.5 118C107.3 119.2 104.667 115.167 104 113C100.8 120.2 93 118.333 89.5 116.5L86.5 113C82.5 129 74.1667 127.333 70.5 124.5C65.3 126.5 62.3333 124.333 61.5 123Z" fill="white"/>
<path d="M94.5 90C90.5 77.2 76.5 73 70 72.5L61.5 94L68 96L69 100L80 102.5L81.5 107.5H84.5L86.5 106C86.9 102 92 93.6667 94.5 90Z" fill="#FFE8D1"/>
<path d="M84.5 83L76 84C76.5 86.5 78 89 81.5 88C84.3 87.2 84.6667 84.3333 84.5 83Z" fill="white"/>
<path d="M66.5 147.5C70.5 144.3 67.8333 137.167 66 134C61.5 135.5 55 140.5 50.5 145C46 149.5 40.5 161.5 38 168.5C36 174.1 35.1667 187.5 35 193.5L35.5 196.5H41.5V193.5C41.5 192.333 41.8 186.8 43 174C44.2 161.2 52.8333 150.333 57 146.5C58.5 148.167 62.5 150.7 66.5 147.5Z" fill="#CE1E3C"/>
<circle cx="63" cy="142" r="3" fill="#FFE92F"/>
<path d="M41 196L42 181.5L51 177L58 180.5L64 188L59.5 196H41Z" fill="#CE1E3C"/>
<path d="M57.5 180L46 164.5C44 167.3 42.5 177.333 42 182H46L48.5 180L51 182L54 182.5L57.5 180Z" fill="white"/>
<path d="M65.5 185L48 159.5C50 151.1 55.1667 148 57.5 147.5L63.5 149.5L67.5 147.5L81.5 161L65.5 185Z" fill="black"/>
<path d="M46 163.5L48.5 158L67 183.5L64 188.5L46 163.5Z" fill="#FFE92F"/>
<path d="M79.5 163.5C70 157.5 66 148 66 148C70 145.2 69.6667 140.833 69 139L72.5 137L74.5 142L77 145L83 150.5L87 151.5C87 151.5 89 169.5 79.5 163.5Z" fill="#FFE92F"/>
<path d="M74.5 134.5H66.5L68.5 138L74.5 134.5Z" fill="black"/>
<path d="M91 126C86.2 129.2 81.6667 127.333 80 126C80 130 75 134.667 72.5 136.5C73.3 144.9 80.8333 149.333 84.5 150.5L97.5 153C115.9 155.4 125.167 141.333 127.5 134C123.5 132.4 121.833 127 121.5 124.5C118.7 129.7 113.333 127.667 111 126C107 129.2 102.667 127.333 101 126C96.6 129.6 92.5 127.5 91 126Z" fill="#CE1E3C"/>
<path d="M99 142H87.5L89.5 146.5H96.5L99 142Z" fill="#E9AE08"/>
<path d="M87.5 139.5L91 137H95L99 139.5V142H87.5V139.5Z" fill="#FFE92F"/>
<path d="M99.5 152.5C108.7 146.9 111 133.5 111 127.5V126C117.4 129.2 121 126.667 122 125L124 130.5L127 135C125.333 138 120.7 145 115.5 149C110.3 153 102.667 153 99.5 152.5Z" fill="#B10024"/>
<path d="M51.5 196.5L63 177.5L67.5 183.5L59.5 196.5H51.5Z" fill="black" fill-opacity="0.3"/>
<path d="M138 149.5L130 147.5L101.5 164.5V174.5L98.5 181V199.5H137L138 149.5Z" fill="black"/>
<path d="M97 160V153.5C114.2 155.1 124.5 142.167 127.5 135.5L132.5 136.5V149.5C124.9 161.5 107.667 165.5 101.5 165V160H97Z" fill="#B09C00"/>
<path d="M88.5 157.5V151L75 171.5L81 181.5H94.5V160.5H91L88.5 157.5Z" fill="#F4DBC3"/>
<path d="M101 174.5V160.5H94V181H98.5L101 174.5Z" fill="#D0B498"/>
<path d="M74.5 172L69 179.5L70.5 181L73.5 179.5L76 181H80L74.5 172Z" fill="white" stroke="black"/>
<path d="M70.5 181.5L69 180.5L59 197H72.5L79 187.5H74.5L72.5 189L70.5 185V181.5Z" fill="white"/>
<rect x="87" y="188" width="6" height="6" fill="white"/>
<path d="M74 194L78.6667 187H99.0741L99 194H74Z" fill="#D7D7D7"/>
<rect x="89" y="147" width="8" height="3" fill="#D9D9D9"/>
<path d="M89 150H97V159.5H89V150Z" fill="white"/>
<path d="M77.5 181.5C75.1 181.5 73.5 179.833 73 179L71 180.5L70 185.5L73 188.5L75.5 186.5H94V181.5H77.5Z" fill="#FFE92F"/>
<path d="M111 125.5C111 123.5 110 120 109.5 118.5L106.5 116.5C104.1 120.9 100.167 121.667 98.5 121.5C97.3 123.1 92.6667 124.833 90.5 125.5C90.5 126.167 91.3 127.6 94.5 128C97.7 128.4 100.167 126.5 101 125.5C106.6 130.3 110 127.5 111 125.5Z" fill="#FFE92F"/>
<path d="M94 182L111.5 181L114.5 179.5L116 186L113.5 187.5L94 186V182Z" fill="#E9AE08"/>
<path d="M111 125.5L109.5 118C115.1 119.6 119.833 116 121.5 114V124C118.3 130 113.167 127.5 111 125.5Z" fill="#B09C00"/>
<path d="M70 65V43.5L75.5 53V65H70Z" fill="#FFE92F"/>
<path d="M91 64.5V43L96.5 52.5V64.5H91Z" fill="#B09C00"/>
<path d="M111 64.5V43L116.5 52.5V64.5H111Z" fill="#B09C00"/>
<path d="M91.498 65V42L86.998 52.5V65H91.498Z" fill="#FFE92F"/>
<path d="M111.5 65V42L107 52.5V65H111.5Z" fill="#FFE92F"/>
<path d="M130.5 65V42L126 52.5V65H130.5Z" fill="#B09C00"/>
<rect x="76" y="53" width="9" height="12" fill="#E9AE08"/>
<rect x="96" y="53" width="9" height="12" fill="#E9AE08"/>
<rect x="116" y="53" width="9" height="12" fill="#E9AE08"/>
<rect x="71" y="66" width="60" height="5" fill="#CE1E3C"/>
<path d="M75.5 52.5V64.5" stroke="#212121" stroke-width="2.8"/>
<path d="M86 51.5V64.5" stroke="#212121" stroke-width="2.8"/>
<path d="M96 51.5V64.5" stroke="#212121" stroke-width="2.8"/>
<path d="M106 51.5V64.5" stroke="#212121" stroke-width="2.8"/>
<path d="M115.798 51.5V64.5" stroke="#212121" stroke-width="2.8"/>
<path d="M126 51.5V64.5" stroke="#212121" stroke-width="2.8"/>
<rect x="70" y="65" width="61" height="7" stroke="#212121" stroke-width="2.8"/>
<path d="M70 72L61.5 94L68.5 96V107.5C68.6667 110.833 67.4 118.6 61 123C63.8333 125.5 70.7 128 75.5 118" stroke="#212121" stroke-width="2.8" stroke-linecap="round" stroke-linejoin="round"/>
<path d="M70.5 124.5C73.6667 126.5 80.8 128.3 84 119.5" stroke="#212121" stroke-width="2.8" stroke-linecap="round" stroke-linejoin="round"/>
<path d="M80 125.5C83.5 126.833 90.9 127.2 92.5 118" stroke="#212121" stroke-width="2.8" stroke-linecap="round" stroke-linejoin="round"/>
<path d="M89.5 124.5C92.5 124.833 98.7 124 99.5 118" stroke="#212121" stroke-width="2.8" stroke-linecap="round" stroke-linejoin="round"/>
<path d="M98.5 121.5C100 121.833 103.7 121.4 106.5 117" stroke="#212121" stroke-width="2.8" stroke-linecap="round" stroke-linejoin="round"/>
<path d="M73 79L89.5 77" stroke="#212121" stroke-width="2.8" stroke-linecap="round" stroke-linejoin="round"/>
<path d="M84.5 83L76 84C76.5 86.5 78 89 81.5 88C84.3 87.2 84.6667 84.3333 84.5 83Z" stroke="#212121" stroke-width="2.8" stroke-linecap="round" stroke-linejoin="round"/>
<path d="M69 100L80 102.5C79.8333 104.667 80.8 108.6 86 107" stroke="#212121" stroke-width="2.8" stroke-linecap="round" stroke-linejoin="round"/>
<path d="M69 106.5H75" stroke="#212121" stroke-width="2.8" stroke-linecap="round" stroke-linejoin="round"/>
<path d="M100.5 72.5V77.5C100.5 81.5 98.5004 86 94.0004 91.5C87.9679 98.873 84.0004 110 88.0004 114.5C92.0004 119 98.0003 119 101.5 116.5C104.3 114.5 105.334 111.333 105.5 110C105.667 108.5 105.1 105.3 101.5 104.5C97.0003 103.5 94.0003 105.5 94.0003 108C94.0003 110.5 96.167 111.333 97.5003 111" stroke="#212121" stroke-width="2.8" stroke-linecap="round" stroke-linejoin="round"/>
<path d="M136.116 72.5V77.5C136.116 81.5 134.116 86 129.616 91.5C125.977 95.9472 122.502 101.533 121.414 106.5M131.116 111C129.782 111.333 127.616 110.5 127.616 108C127.616 105.5 130.616 103.5 135.116 104.5C138.716 105.3 139.282 108.5 139.116 110C138.893 112 137.916 113.5 135.116 115.5C131.616 118 126.556 119 123 115C122.391 114.315 121.94 113.558 121.626 112.743" stroke="#212121" stroke-width="2.8" stroke-linecap="round" stroke-linejoin="round"/>
<path d="M117.111 72.5V77.5C117.111 81.5 115.231 86.4947 110.611 91.5C107.323 95.0616 104.636 100.274 103.536 105M104.611 114.5C108.611 119 114.61 119 118.11 116.5C120.91 114.5 121.944 111.333 122.11 110C122.277 108.5 121.71 105.3 118.11 104.5C113.61 103.5 110.61 105.5 110.61 108C110.61 110.5 112.777 111.333 114.11 111" stroke="#212121" stroke-width="2.8" stroke-linecap="round" stroke-linejoin="round"/>
<path d="M109.111 72.5V77.5C109.111 81.5 107.231 86.4947 102.611 91.5C99.3229 95.0616 96.6358 100.274 95.5361 105" stroke="#212121" stroke-width="2.8" stroke-linecap="round" stroke-linejoin="round"/>
<path d="M126.574 72.5V77.5C126.574 81.5 124.695 86.4947 120.074 91.5C116.787 95.0616 114.1 99.7745 113 104.5" stroke="#212121" stroke-width="2.8" stroke-linecap="round" stroke-linejoin="round"/>
<path d="M122 114C120.333 121.167 120.7 135.9 135.5 137.5" stroke="#212121" stroke-width="2.8" stroke-linecap="round" stroke-linejoin="round"/>
<path d="M80.5 126C79.6667 129 76.1 135.6 68.5 138" stroke="#212121" stroke-width="2.8" stroke-linecap="round" stroke-linejoin="round"/>
<path d="M75 134H66C55.5 137.333 35.4 154 35 194" stroke="#212121" stroke-width="2.8" stroke-linecap="round" stroke-linejoin="round"/>
<path d="M66.0002 134.5C68.5002 137.333 72.0002 144 66.0002 148C64.5002 148.833 60.6002 149.7 57.0002 146.5C51.0002 151.333 39.5002 168.1 41.5002 196.5" stroke="#212121" stroke-width="2.8" stroke-linecap="round" stroke-linejoin="round"/>
<path d="M72 137C72.8333 140.667 77 148.7 87 151.5" stroke="#212121" stroke-width="2.8" stroke-linecap="round" stroke-linejoin="round"/>
<path d="M46.5 164L64 188.5" stroke="#212121" stroke-width="2.8" stroke-linecap="round" stroke-linejoin="round"/>
<path d="M87.5 150.5L57 199.5" stroke="#212121" stroke-width="2.8" stroke-linecap="round" stroke-linejoin="round"/>
<path d="M42 181C43.1667 182 46.1 183.1 48.5 179.5C50 181.667 53.9 184.7 57.5 179.5" stroke="#212121" stroke-width="2.8" stroke-linecap="round" stroke-linejoin="round"/>
<path d="M97 153C104.5 154 121 151.8 127 135" stroke="#212121" stroke-width="2.8" stroke-linecap="round" stroke-linejoin="round"/>
<path d="M75 172L80.5 181.5" stroke="#212121" stroke-width="2.8" stroke-linecap="round" stroke-linejoin="round"/>
<path d="M73 178.5C73 179.5 74.7 181.5 77.5 181.5C80.3 181.5 93.6667 181.5 99 181.5L101.5 174.5V160.5H97M97 160.5H92.5C91.3333 160.667 89 160 89 156V146.5C89 145.333 88.6 142.9 87 142.5C87 140.333 88 136.5 93 136.5C98.5 136.5 99 140 99.5 142.5C98.6667 142.5 97 143.3 97 146.5C97 149.7 97 157.167 97 160.5Z" stroke="#212121" stroke-width="2.8" stroke-linecap="round" stroke-linejoin="round"/>
<path d="M98.5 187H110.5C111.167 187 112.6 187.3 113 188.5C116 187 118 181.5 113 179C112.667 180.167 111.6 181.5 110 181.5C108.4 181.5 102.333 181.5 99.5 181.5" stroke="#212121" stroke-width="2.8" stroke-linecap="round" stroke-linejoin="round"/>
<path d="M98.4996 187H76.4996C75.4996 187 73.3996 187 72.9996 189C69.9996 187 67.9996 182.5 72.9996 178.5" stroke="#212121" stroke-width="2.8" stroke-linecap="round" stroke-linejoin="round"/>
<path d="M121.397 122C121.397 125.314 119.313 128 116 128C113.913 128 112.074 126.934 111 125.318C109.925 126.934 108.087 128 106 128C103.913 128 102.074 126.934 101 125.318C99.9246 126.934 98.0865 128 95.9996 128C93.9126 128 92.0745 126.934 90.9996 125.318C89.9246 126.934 88.0865 128 85.9996 128C84.2226 128 82.626 127.227 81.5273 126" stroke="#212121" stroke-width="2.8" stroke-linecap="round" stroke-linejoin="round"/>
<path d="M89.5 147H97" stroke="#212121" stroke-width="2.8" stroke-linecap="round" stroke-linejoin="round"/>
<path d="M70 41.5V65H131V41.5L125.5 52.5H116L111.5 41.5L106.5 52.5H96.5L91.5 41.5L86 52.5H75L70 41.5Z" stroke="#212121" stroke-width="2.8" stroke-linejoin="round"/>
<path d="M94 188V194" stroke="#212121" stroke-width="2.8" stroke-linecap="round" stroke-linejoin="round"/>
<path d="M84.5 188L87 194V188" stroke="#212121" stroke-width="2.8" stroke-linecap="round" stroke-linejoin="round"/>
<path d="M87 188H84.5" stroke="#212121" stroke-width="2.8" stroke-linecap="round" stroke-linejoin="round"/>
</g>
<path fill-rule="evenodd" clip-rule="evenodd" d="M14 62V11H23.1773V32.8918L23.4765 32.9653L34.9777 11H45.2954L32.8183 33.0843L45.9167 62H35.5806L26.5632 41.5608L23.1773 47.4831V62H14Z" fill="#212121"/>
</g>
<defs>
<filter id="filter0_i_8462_309183" x="0" y="0" width="132" height="194" filterUnits="userSpaceOnUse" color-interpolation-filters="sRGB">
<feFlood flood-opacity="0" result="BackgroundImageFix"/>
<feBlend mode="normal" in="SourceGraphic" in2="BackgroundImageFix" result="shape"/>
<feColorMatrix in="SourceAlpha" type="matrix" values="0 0 0 0 0 0 0 0 0 0 0 0 0 0 0 0 0 0 127 0" result="hardAlpha"/>
<feMorphology radius="2" operator="erode" in="SourceAlpha" result="effect1_innerShadow_8462_309183"/>
<feOffset/>
<feGaussianBlur stdDeviation="0.5"/>
<feComposite in2="hardAlpha" operator="arithmetic" k2="-1" k3="1"/>
<feColorMatrix type="matrix" values="0 0 0 0 1 0 0 0 0 1 0 0 0 0 1 0 0 0 1 0"/>
<feBlend mode="normal" in2="shape" result="effect1_innerShadow_8462_309183"/>
</filter>
<linearGradient id="paint0_linear_8462_309183" x1="8.98423" y1="101.043" x2="8.98423" y2="268.635" gradientUnits="userSpaceOnUse">
<stop stop-color="#F6F6F6"/>
<stop offset="1" stop-color="#ABABAB"/>
</linearGradient>
<clipPath id="clip0_8462_309183">
<rect width="132" height="194" rx="8" fill="white"/>
</clipPath>
<clipPath id="clip1_8462_309183">
<path d="M32 40H132V186C132 190.418 128.418 194 124 194H32V40Z" fill="white"/>
</clipPath>
</defs>
</svg>
